<svg id="svg" xmlns="http://www.w3.org/2000/svg" xmlns:xlink="http://www.w3.org/1999/xlink" width="400" height="224.27227944469325" viewBox="0, 0, 400,224.27227944469325"><g id="svgg"><path id="path0" d="M31.258 59.113 C 30.963 59.196,30.399 59.389,30.004 59.540 C 29.610 59.691,29.183 59.818,29.054 59.822 C 28.555 59.839,24.447 61.727,22.750 62.720 C 21.698 63.335,20.425 64.809,19.854 66.075 C 19.559 66.729,19.203 67.518,19.063 67.828 C 18.923 68.139,18.809 68.466,18.809 68.556 C 18.809 68.646,18.645 69.057,18.446 69.471 C 18.246 69.884,17.995 70.645,17.889 71.161 C 17.782 71.678,17.612 72.463,17.510 72.906 C 17.065 74.845,17.310 76.048,18.374 77.147 C 18.486 77.263,18.631 77.820,18.698 78.384 C 18.764 78.949,18.930 79.660,19.067 79.965 C 19.203 80.270,19.364 80.814,19.425 81.173 C 19.485 81.533,19.700 82.036,19.901 82.293 C 20.170 82.634,20.338 83.300,20.530 84.774 C 20.674 85.882,20.869 87.283,20.964 87.887 C 21.059 88.490,21.095 89.216,21.043 89.499 C 20.990 89.782,21.075 90.699,21.231 91.536 C 21.387 92.373,21.590 93.784,21.682 94.671 C 21.774 95.558,21.973 97.089,22.124 98.074 C 22.286 99.136,22.431 101.654,22.481 104.254 C 22.526 106.668,22.639 109.006,22.732 109.449 C 22.956 110.519,23.230 113.608,23.471 117.779 C 23.579 119.651,23.744 121.787,23.838 122.526 C 24.244 125.734,24.344 128.714,24.175 132.561 C 23.997 136.595,24.070 138.349,24.625 143.305 C 24.773 144.635,24.978 146.086,25.080 146.529 C 25.181 146.973,25.340 147.859,25.432 148.500 C 25.635 149.918,25.858 150.621,26.509 151.903 C 26.784 152.445,27.142 153.372,27.304 153.963 C 27.467 154.554,27.670 155.199,27.756 155.396 C 28.263 156.559,28.708 157.559,29.053 158.307 C 29.290 158.821,30.022 159.726,30.901 160.591 C 32.477 162.143,32.524 162.183,33.587 162.830 C 34.390 163.319,34.556 163.444,35.250 164.087 C 37.346 166.027,40.231 166.710,43.069 165.938 C 44.637 165.512,47.470 162.761,47.470 161.665 C 47.470 161.534,47.583 161.198,47.722 160.919 C 47.861 160.640,48.056 160.210,48.156 159.964 C 48.256 159.718,48.672 158.791,49.081 157.904 C 49.866 156.204,50.141 155.252,50.273 153.784 C 50.317 153.292,50.427 152.727,50.517 152.530 C 50.607 152.333,50.719 151.648,50.767 151.008 C 50.994 147.933,51.687 141.426,51.873 140.605 C 51.931 140.351,51.882 139.666,51.764 139.082 C 51.647 138.498,51.530 137.215,51.504 136.229 C 51.479 135.244,51.367 133.592,51.255 132.557 C 51.144 131.523,51.002 130.178,50.940 129.569 L 50.826 128.462 51.432 128.363 C 53.756 127.982,60.183 127.694,61.655 127.905 C 62.517 128.028,63.570 128.081,63.996 128.023 L 64.769 127.917 65.087 129.924 C 65.262 131.027,65.524 132.656,65.668 133.542 C 65.832 134.548,65.933 136.435,65.936 138.558 C 65.942 143.871,66.548 150.496,67.165 151.993 C 67.246 152.190,67.413 152.915,67.534 153.605 C 67.656 154.295,67.936 155.262,68.156 155.755 C 68.376 156.247,68.615 156.972,68.687 157.365 C 68.759 157.758,69.053 158.427,69.340 158.852 C 69.627 159.277,69.976 159.845,70.115 160.115 C 70.545 160.946,73.164 163.338,74.608 164.219 C 75.199 164.579,75.773 164.962,75.883 165.070 C 76.095 165.276,76.944 165.546,78.280 165.833 C 79.113 166.011,80.563 165.937,80.878 165.701 C 80.976 165.627,81.416 165.511,81.856 165.444 C 82.714 165.313,85.087 164.289,85.087 164.050 C 85.087 163.970,85.196 163.905,85.328 163.905 C 85.683 163.905,88.221 161.410,88.607 160.681 C 88.789 160.336,88.957 160.022,88.979 159.984 C 89.044 159.869,90.309 160.866,91.267 161.788 C 91.760 162.262,92.251 162.650,92.359 162.651 C 92.467 162.651,92.701 162.812,92.880 163.010 C 93.058 163.207,93.615 163.563,94.117 163.802 C 94.618 164.040,95.300 164.478,95.631 164.775 C 96.577 165.625,98.445 166.432,100.045 166.683 C 100.439 166.745,101.487 166.945,102.373 167.128 C 106.213 167.922,112.124 167.710,114.203 166.705 C 116.027 165.824,118.819 162.457,120.279 159.378 C 120.655 158.587,120.923 158.690,121.239 159.746 C 121.478 160.542,122.147 161.337,123.148 162.012 C 124.325 162.807,125.544 164.020,126.077 164.929 C 126.665 165.931,128.423 167.418,129.223 167.589 C 129.530 167.655,129.861 167.768,129.960 167.840 C 131.051 168.647,136.059 168.819,138.189 168.124 C 141.235 167.130,142.133 165.982,142.773 162.261 L 142.979 161.065 143.806 162.082 C 145.987 164.765,148.457 166.315,150.560 166.320 C 152.960 166.326,156.226 164.160,157.359 161.812 C 157.540 161.436,157.755 160.992,157.836 160.826 C 158.077 160.331,158.337 158.396,158.445 156.292 C 158.501 155.208,158.583 154.197,158.629 154.045 C 158.674 153.894,158.756 151.677,158.812 149.119 C 158.867 146.562,158.944 143.986,158.981 143.395 C 159.019 142.803,159.096 140.143,159.153 137.483 C 159.271 131.955,159.578 126.263,159.768 126.061 C 159.839 125.986,160.134 125.997,160.423 126.086 C 161.889 126.537,166.415 126.897,167.300 126.634 C 167.494 126.576,167.607 126.829,167.748 127.631 C 167.851 128.222,168.002 128.808,168.083 128.934 C 168.164 129.059,168.258 132.243,168.292 136.010 C 168.355 143.031,168.698 147.583,169.344 149.981 C 169.483 150.496,169.737 151.603,169.909 152.441 C 171.277 159.114,173.635 161.800,178.883 162.665 C 181.450 163.088,184.505 160.824,184.505 158.500 C 184.505 158.317,184.583 158.028,184.678 157.857 C 185.010 157.257,185.751 155.490,185.872 155.010 C 185.939 154.743,186.101 154.318,186.233 154.065 C 186.365 153.812,186.474 153.464,186.474 153.292 C 186.475 153.119,186.547 152.978,186.634 152.978 C 186.721 152.978,186.834 152.797,186.885 152.575 C 186.936 152.353,187.149 151.729,187.359 151.187 C 188.245 148.897,188.975 145.001,188.980 142.541 C 188.983 140.808,188.412 136.567,188.096 135.976 C 188.006 135.808,187.805 135.110,187.650 134.427 C 187.495 133.743,187.296 133.023,187.208 132.826 C 187.060 132.495,186.476 129.585,186.476 129.181 C 186.476 128.993,187.664 129.249,187.998 129.509 C 188.725 130.075,195.562 130.396,196.224 129.896 C 196.330 129.816,196.901 129.648,197.492 129.523 C 198.083 129.398,198.849 129.174,199.194 129.025 C 200.827 128.318,202.723 127.351,203.046 127.059 C 203.243 126.881,203.726 126.498,204.120 126.209 C 204.514 125.919,205.320 125.215,205.911 124.644 L 206.986 123.607 207.118 124.455 C 207.190 124.921,207.379 126.108,207.537 127.094 C 208.538 133.330,208.783 135.937,208.962 142.220 C 209.058 145.619,209.272 147.888,209.680 149.842 C 209.824 150.532,209.942 151.341,209.942 151.638 C 209.942 153.055,211.318 156.804,212.471 158.531 C 215.809 163.531,220.366 165.674,226.029 164.905 C 228.087 164.626,234.572 161.791,235.719 160.669 C 235.876 160.515,236.650 159.875,237.438 159.247 C 238.227 158.619,239.443 157.601,240.141 156.985 L 241.410 155.865 241.829 157.064 C 242.540 159.098,243.305 159.998,245.747 161.671 C 246.277 162.034,247.049 162.589,247.461 162.904 C 247.874 163.219,248.488 163.580,248.826 163.706 C 249.164 163.832,249.580 164.009,249.751 164.099 C 249.922 164.189,250.152 164.263,250.262 164.263 C 250.371 164.263,250.715 164.379,251.025 164.521 C 252.338 165.120,253.010 165.338,253.539 165.338 C 253.847 165.338,254.341 165.403,254.636 165.483 C 255.280 165.657,259.512 165.292,260.014 165.019 C 260.208 164.914,260.770 164.694,261.263 164.530 C 261.755 164.366,262.642 164.072,263.233 163.876 C 263.824 163.680,264.469 163.448,264.666 163.361 C 264.863 163.274,265.790 163.068,266.726 162.904 C 269.299 162.454,272.567 161.094,274.545 159.652 C 276.489 158.233,277.461 157.449,277.614 157.176 C 277.701 157.019,278.456 156.192,279.291 155.338 C 281.714 152.860,283.396 150.442,283.802 148.855 L 284.024 147.986 285.362 149.274 C 288.577 152.369,290.799 154.228,292.253 155.036 C 294.372 156.214,295.049 156.561,295.230 156.561 C 295.336 156.561,295.677 156.670,295.987 156.804 C 297.127 157.296,297.635 157.490,298.694 157.841 C 299.289 158.037,299.937 158.267,300.134 158.350 C 301.117 158.766,303.335 159.425,304.613 159.681 C 305.401 159.839,306.455 160.050,306.956 160.151 C 308.808 160.524,316.388 160.431,318.674 160.007 C 321.125 159.553,324.070 158.783,324.214 158.560 C 324.271 158.472,324.519 158.339,324.765 158.264 C 325.586 158.016,327.770 156.887,329.154 155.996 C 330.826 154.921,332.786 152.927,333.753 151.318 C 334.769 149.630,334.819 149.642,335.339 151.724 C 335.907 153.994,338.852 158.164,340.468 158.987 C 340.846 159.180,341.196 159.387,341.245 159.447 C 341.626 159.917,343.878 160.187,344.917 159.888 C 346.208 159.517,349.664 155.970,349.664 155.018 C 349.664 154.966,349.857 154.668,350.093 154.354 C 350.328 154.041,350.699 153.341,350.917 152.799 C 351.135 152.257,351.383 151.652,351.469 151.455 C 351.554 151.258,351.751 150.412,351.906 149.575 C 352.062 148.737,352.230 147.891,352.280 147.694 C 352.566 146.576,352.848 140.788,352.888 135.244 C 352.950 126.640,352.948 126.339,352.798 123.780 C 352.675 121.685,352.900 117.926,353.175 117.481 C 353.345 117.207,353.831 118.136,354.501 120.018 C 354.834 120.954,355.172 121.747,355.251 121.779 C 355.331 121.812,355.396 121.960,355.396 122.107 C 355.396 122.254,355.583 122.872,355.811 123.480 C 357.010 126.681,357.523 128.647,358.269 132.915 C 358.771 135.784,359.041 136.614,360.335 139.275 C 360.958 140.555,361.716 142.288,362.018 143.126 C 362.321 143.963,362.644 144.810,362.736 145.007 C 362.828 145.204,363.027 145.799,363.178 146.328 C 363.328 146.858,363.522 147.382,363.608 147.493 C 363.693 147.603,363.850 147.952,363.956 148.267 C 364.977 151.304,370.321 156.202,372.614 156.202 C 373.032 156.202,373.628 156.294,373.939 156.407 C 374.767 156.706,377.257 155.907,378.339 154.994 C 379.712 153.836,380.833 152.537,380.833 152.105 C 380.833 152.010,380.905 151.906,380.993 151.873 C 381.441 151.706,383.055 148.368,383.369 146.959 C 383.645 145.719,383.750 141.166,383.522 140.260 C 383.339 139.526,382.317 133.991,382.100 132.557 C 381.924 131.391,381.602 130.101,381.362 129.601 C 381.268 129.404,381.035 128.518,380.846 127.631 C 380.219 124.699,378.728 119.918,377.857 118.047 C 376.923 116.040,375.763 113.815,375.260 113.068 C 374.975 112.644,374.742 112.250,374.742 112.192 C 374.742 112.133,374.587 111.755,374.397 111.350 C 374.207 110.945,373.795 110.049,373.481 109.360 C 372.672 107.578,369.643 102.929,368.543 101.779 C 368.290 101.515,367.887 101.011,367.648 100.659 C 367.256 100.082,365.405 98.343,365.182 98.343 C 365.132 98.343,364.826 98.100,364.501 97.803 C 363.360 96.761,360.916 95.724,358.541 95.272 C 352.682 94.159,352.617 94.157,348.768 94.923 C 342.552 96.161,342.267 96.240,340.008 97.329 C 338.826 97.899,336.141 101.058,334.959 103.269 C 334.749 103.663,334.395 104.228,334.173 104.524 C 333.741 105.101,333.005 106.620,333.005 106.934 C 333.005 107.039,332.927 107.265,332.832 107.436 C 332.370 108.269,331.876 109.605,331.685 110.542 L 331.473 111.582 331.038 110.739 C 330.619 109.926,329.643 108.379,329.434 108.195 C 329.378 108.146,329.112 107.783,328.843 107.389 C 327.914 106.026,324.737 102.987,323.796 102.560 C 323.492 102.422,322.597 102.053,321.809 101.741 C 321.021 101.428,320.122 101.060,319.812 100.922 C 319.501 100.784,319.134 100.672,318.997 100.672 C 318.859 100.672,318.670 100.604,318.576 100.522 C 318.482 100.440,318.003 100.231,317.510 100.057 C 317.017 99.884,316.360 99.629,316.050 99.490 C 315.739 99.352,315.406 99.239,315.309 99.239 C 315.212 99.239,314.902 99.118,314.620 98.971 C 314.337 98.824,313.982 98.703,313.829 98.702 C 313.676 98.702,313.475 98.632,313.381 98.547 C 313.214 98.396,312.128 98.025,310.703 97.633 C 309.353 97.261,301.568 97.951,300.861 98.505 C 300.757 98.586,300.107 98.708,299.418 98.775 C 298.133 98.900,296.294 99.301,295.656 99.596 C 295.459 99.687,294.965 99.846,294.557 99.949 C 294.150 100.052,293.717 100.257,293.595 100.404 C 293.473 100.551,293.292 100.672,293.194 100.672 C 293.034 100.672,290.776 102.195,290.551 102.455 C 290.402 102.626,289.398 103.424,288.850 103.807 C 288.567 104.004,287.961 104.506,287.502 104.924 C 286.531 105.807,286.488 105.775,285.995 103.807 C 285.540 101.984,283.333 98.880,282.493 98.880 C 282.407 98.880,282.230 98.775,282.100 98.645 C 281.805 98.353,279.143 96.731,278.955 96.730 C 278.880 96.729,278.596 96.613,278.324 96.471 C 277.764 96.179,275.829 95.656,275.308 95.656 C 275.117 95.656,274.822 95.576,274.651 95.479 C 272.810 94.431,263.958 93.878,263.403 94.776 C 263.347 94.866,263.165 94.940,262.999 94.940 C 262.832 94.941,262.212 95.182,261.621 95.477 C 261.030 95.772,260.425 96.014,260.278 96.015 C 260.130 96.016,259.791 96.130,259.524 96.270 C 259.257 96.409,258.588 96.623,258.038 96.747 C 257.487 96.870,256.996 97.038,256.945 97.119 C 256.894 97.201,256.709 97.268,256.532 97.268 C 256.355 97.268,255.851 97.460,255.411 97.694 C 254.971 97.928,254.428 98.177,254.204 98.248 C 253.049 98.615,250.501 100.769,249.354 102.350 C 248.934 102.929,248.298 103.701,247.941 104.066 C 246.881 105.148,245.893 106.261,245.231 107.120 C 244.889 107.564,244.523 108.007,244.417 108.106 C 243.824 108.659,242.544 111.176,242.544 111.790 C 242.544 111.969,242.463 112.165,242.365 112.226 C 242.266 112.287,242.185 112.594,242.183 112.908 C 242.182 113.222,242.060 113.881,241.911 114.371 C 240.466 119.134,241.903 123.528,246.032 126.980 C 246.429 127.311,247.116 127.892,247.559 128.271 C 248.003 128.650,248.559 129.124,248.796 129.325 C 249.033 129.526,249.300 129.691,249.391 129.691 C 249.481 129.691,249.668 129.792,249.805 129.915 C 250.428 130.473,250.662 130.630,251.503 131.053 C 251.996 131.301,252.621 131.708,252.891 131.959 C 253.496 132.520,253.980 132.775,255.554 133.358 C 256.231 133.609,256.946 133.890,257.143 133.982 C 258.729 134.722,259.756 135.111,260.946 135.423 C 262.822 135.914,263.094 136.202,262.818 137.400 C 262.702 137.904,262.602 138.855,262.596 139.512 L 262.586 140.708 261.745 141.346 C 261.283 141.698,260.260 142.474,259.472 143.071 C 258.683 143.668,257.728 144.256,257.349 144.377 C 256.970 144.499,256.447 144.710,256.185 144.846 C 255.924 144.982,255.589 145.098,255.441 145.103 C 255.293 145.108,254.850 145.234,254.456 145.382 C 254.062 145.531,253.094 145.810,252.306 146.003 C 251.518 146.196,250.712 146.424,250.515 146.511 C 248.378 147.452,245.167 147.074,244.455 145.797 C 244.025 145.027,241.361 141.959,240.501 141.245 C 238.612 139.676,233.371 139.186,230.830 140.341 C 227.994 141.631,227.754 141.324,227.483 136.082 C 227.255 131.662,227.066 123.946,227.117 121.156 C 227.220 115.614,226.347 109.024,225.176 106.494 C 224.993 106.099,224.760 105.515,224.657 105.194 C 224.425 104.473,223.358 102.846,222.804 102.368 C 221.309 101.079,219.405 99.763,218.719 99.544 C 216.149 98.724,213.209 98.549,211.364 99.107 C 210.083 99.494,207.434 101.993,207.434 102.814 C 207.434 102.917,207.353 103.000,207.255 103.000 C 207.156 103.000,207.075 103.101,207.075 103.224 C 207.074 103.348,206.960 103.666,206.821 103.932 C 206.417 104.707,206.001 106.309,206.001 107.093 C 206.001 107.490,205.920 107.866,205.822 107.927 C 205.723 107.987,205.643 108.313,205.643 108.651 L 205.643 109.264 203.502 107.700 C 202.324 106.839,200.830 105.773,200.181 105.329 C 199.532 104.886,198.901 104.434,198.779 104.326 C 198.379 103.972,194.115 101.982,193.014 101.636 C 191.390 101.126,187.597 101.160,186.469 101.694 C 186.023 101.906,185.418 102.137,185.126 102.207 C 184.239 102.422,182.156 103.598,180.780 104.661 C 180.065 105.214,179.321 105.717,179.126 105.779 C 178.932 105.840,178.773 105.953,178.773 106.029 C 178.773 106.105,178.568 106.261,178.318 106.374 C 178.068 106.488,177.766 106.666,177.647 106.768 C 177.127 107.215,175.456 108.159,175.327 108.079 C 175.249 108.031,175.076 107.735,174.943 107.422 C 174.441 106.240,172.981 105.068,170.443 103.806 C 169.360 103.267,168.191 102.668,167.846 102.476 C 166.918 101.957,164.809 101.030,164.555 101.030 C 164.434 101.030,164.258 100.959,164.165 100.873 C 163.157 99.941,157.247 99.544,155.877 100.316 C 155.711 100.410,155.132 100.605,154.590 100.750 C 152.924 101.195,151.527 101.738,149.798 102.611 C 148.887 103.072,147.798 103.621,147.380 103.831 L 146.619 104.214 146.109 103.602 C 144.550 101.731,141.892 101.980,140.850 104.096 C 138.843 108.167,138.789 108.448,138.725 115.044 C 138.696 118.072,138.611 120.648,138.537 120.768 C 138.463 120.888,138.331 121.836,138.243 122.876 C 138.155 123.915,138.052 125.007,138.013 125.302 C 137.864 126.433,137.928 132.600,138.119 135.513 C 138.229 137.188,138.384 139.566,138.464 140.797 C 138.543 142.029,138.648 143.197,138.696 143.395 C 138.745 143.592,138.837 144.116,138.900 144.559 C 139.124 146.119,139.581 148.414,139.737 148.768 C 139.875 149.079,140.618 152.260,140.618 152.537 C 140.618 152.593,140.356 152.440,140.036 152.199 C 139.716 151.957,138.897 151.461,138.217 151.096 C 137.537 150.731,136.771 150.179,136.515 149.870 C 136.259 149.561,135.694 148.985,135.260 148.590 C 134.825 148.196,134.261 147.683,134.006 147.451 C 133.751 147.219,133.089 146.800,132.536 146.520 L 131.529 146.010 131.313 144.613 C 131.020 142.724,131.006 141.041,131.265 139.006 C 131.647 136.004,131.840 134.138,132.033 131.584 C 132.137 130.211,132.337 128.810,132.479 128.472 C 132.898 127.470,132.665 123.485,132.117 122.273 C 131.980 121.969,131.812 121.438,131.745 121.093 C 131.578 120.242,130.569 117.614,130.380 117.540 C 130.297 117.507,130.228 117.326,130.228 117.137 C 130.228 116.948,130.076 116.641,129.889 116.454 C 129.685 116.250,129.431 115.522,129.249 114.618 C 129.083 113.795,128.872 112.981,128.782 112.810 C 128.691 112.639,128.616 112.342,128.616 112.151 C 128.616 111.959,128.161 110.930,127.605 109.864 C 127.050 108.799,126.448 107.634,126.268 107.276 C 126.088 106.918,125.676 106.408,125.353 106.144 C 125.030 105.879,124.503 105.429,124.183 105.143 C 123.862 104.857,123.177 104.350,122.660 104.015 C 122.143 103.681,121.524 103.195,121.285 102.935 C 121.047 102.676,120.789 102.463,120.714 102.463 C 120.596 102.463,119.169 101.518,116.794 99.867 C 116.083 99.374,114.605 98.956,112.741 98.722 C 112.042 98.634,111.309 98.475,111.110 98.369 C 110.165 97.863,104.375 98.488,102.642 99.284 C 98.540 101.168,97.968 101.570,94.671 104.891 C 91.830 107.752,91.272 108.422,90.634 109.732 C 90.320 110.375,90.042 110.878,90.015 110.847 C 89.927 110.747,89.543 107.237,89.391 105.141 C 89.234 102.981,88.608 99.393,88.287 98.812 C 88.184 98.627,88.031 97.781,87.947 96.931 C 87.795 95.405,87.588 94.471,87.245 93.775 C 86.981 93.239,85.863 88.724,85.714 87.595 C 85.643 87.053,85.522 86.529,85.445 86.431 C 85.226 86.150,84.588 82.472,84.466 80.788 C 84.229 77.522,83.976 75.163,83.817 74.744 C 83.638 74.274,83.221 72.244,83.036 70.945 C 82.973 70.506,82.856 70.063,82.774 69.960 C 82.693 69.856,82.483 69.328,82.307 68.786 C 81.516 66.349,76.591 61.137,74.273 60.284 C 72.587 59.663,70.355 60.261,69.365 61.598 C 69.101 61.956,68.540 62.640,68.119 63.118 C 67.698 63.597,67.353 64.064,67.353 64.156 C 67.353 64.248,67.041 64.743,66.659 65.256 C 65.830 66.369,64.959 68.042,63.981 70.399 C 63.879 70.645,63.755 71.088,63.706 71.384 C 63.551 72.321,63.218 73.700,63.056 74.071 C 62.771 74.725,62.532 75.672,62.410 76.627 C 62.344 77.147,62.220 77.615,62.135 77.668 C 62.049 77.721,61.979 78.047,61.979 78.392 C 61.979 78.738,61.908 79.156,61.821 79.322 C 61.645 79.659,61.480 82.019,61.336 86.273 C 61.282 87.838,61.198 89.763,61.147 90.551 C 61.096 91.339,61.024 93.072,60.987 94.402 C 60.949 95.732,60.832 97.546,60.726 98.433 C 60.620 99.319,60.502 100.546,60.464 101.159 C 60.262 104.397,60.116 104.788,59.232 104.469 C 58.753 104.295,57.843 104.286,55.147 104.427 C 53.240 104.527,51.548 104.610,51.387 104.611 C 51.157 104.612,51.066 104.351,50.965 103.403 C 50.894 102.738,50.750 102.033,50.644 101.836 C 50.384 101.352,50.435 95.782,50.704 95.279 C 51.313 94.141,50.796 76.054,50.082 73.512 C 48.635 68.356,47.085 65.757,44.169 63.591 C 43.275 62.926,42.210 61.986,41.802 61.500 C 41.064 60.622,39.812 59.838,38.424 59.384 C 37.565 59.104,32.030 58.894,31.258 59.113 M37.528 66.165 C 38.177 66.852,38.903 67.446,41.056 69.055 C 41.871 69.665,43.142 71.889,43.510 73.352 C 43.633 73.843,43.800 74.327,43.880 74.427 C 44.474 75.167,44.764 92.019,44.267 96.910 C 44.094 98.614,44.087 99.476,44.239 100.518 C 44.349 101.271,44.505 103.367,44.586 105.176 C 44.826 110.545,45.811 111.602,50.096 111.089 C 55.646 110.424,58.651 110.509,61.157 111.401 C 64.328 112.530,66.344 110.711,66.396 106.673 C 66.436 103.477,66.623 100.485,66.825 99.776 C 66.924 99.431,67.162 95.199,67.354 90.372 C 67.682 82.134,67.991 78.549,68.419 78.016 C 68.501 77.915,68.609 77.510,68.660 77.116 C 68.770 76.271,69.121 74.916,69.345 74.476 C 69.432 74.305,69.503 74.013,69.503 73.826 C 69.503 73.521,69.778 72.718,70.218 71.742 C 70.306 71.545,70.553 70.981,70.767 70.488 C 70.980 69.996,71.458 69.189,71.829 68.697 C 72.200 68.204,72.603 67.609,72.724 67.373 L 72.945 66.946 73.419 67.404 C 76.378 70.273,76.718 70.756,77.019 72.527 C 77.122 73.130,77.291 74.124,77.395 74.736 C 77.499 75.349,77.661 75.943,77.756 76.057 C 77.850 76.170,77.966 77.181,78.014 78.302 C 78.061 79.423,78.141 80.703,78.191 81.146 C 78.242 81.590,78.315 82.436,78.353 83.027 C 78.422 84.073,78.915 86.509,79.314 87.774 C 79.423 88.119,79.683 89.288,79.893 90.372 C 80.288 92.414,81.029 95.150,81.338 95.707 C 81.435 95.882,81.635 96.881,81.782 97.926 C 81.929 98.971,82.245 100.602,82.485 101.550 C 82.726 102.498,83.009 104.159,83.115 105.242 C 83.469 108.867,83.652 110.778,83.843 112.842 C 83.948 113.969,84.066 114.943,84.106 115.008 C 84.145 115.072,84.190 115.682,84.205 116.362 C 84.220 117.043,84.302 117.985,84.387 118.456 C 84.473 118.926,84.589 120.216,84.645 121.322 C 84.701 122.427,84.940 124.752,85.175 126.489 C 85.581 129.480,85.652 130.800,85.895 139.982 C 85.936 141.553,85.898 143.165,85.811 143.565 C 85.723 143.964,85.560 145.016,85.448 145.902 C 85.336 146.789,85.156 147.837,85.048 148.231 C 84.811 149.098,84.671 149.786,84.210 152.351 C 84.016 153.435,83.771 154.770,83.666 155.318 C 83.561 155.865,83.475 156.536,83.475 156.807 C 83.475 157.874,80.998 159.604,79.469 159.606 C 78.626 159.608,75.235 157.106,75.235 156.483 C 75.235 156.394,75.122 156.193,74.984 156.037 C 74.698 155.715,73.712 152.933,73.455 151.724 C 73.361 151.281,73.158 150.434,73.006 149.843 C 72.618 148.343,72.354 144.380,72.281 138.968 C 72.247 136.434,72.171 134.283,72.112 134.188 C 71.913 133.866,71.265 128.896,71.234 127.452 C 71.204 126.034,70.588 123.959,70.199 123.959 C 70.112 123.959,70.040 123.845,70.040 123.705 C 70.040 122.529,66.755 121.246,64.642 121.596 C 63.932 121.714,63.164 121.726,62.606 121.629 C 61.221 121.387,59.358 121.422,54.429 121.785 C 51.931 121.968,49.525 122.116,49.082 122.114 C 45.680 122.097,43.639 126.381,44.663 131.393 C 44.723 131.688,44.816 132.444,44.869 133.073 C 44.922 133.701,45.052 134.774,45.158 135.456 C 45.264 136.139,45.302 136.826,45.241 136.983 C 45.181 137.140,45.217 137.892,45.321 138.653 C 45.516 140.081,45.459 141.078,44.856 146.798 C 44.700 148.276,44.503 150.009,44.419 150.649 C 44.334 151.290,44.215 152.297,44.154 152.888 C 44.033 154.059,44.055 153.995,43.028 156.202 C 41.826 158.786,41.558 159.401,41.558 159.577 C 41.558 159.985,40.129 160.113,39.735 159.740 C 39.162 159.199,37.808 158.174,36.894 157.590 C 35.711 156.834,34.639 155.693,34.269 154.794 C 34.122 154.436,33.893 153.901,33.760 153.605 C 33.628 153.309,33.398 152.643,33.249 152.125 C 33.100 151.606,32.684 150.531,32.325 149.736 C 31.688 148.325,31.472 147.334,30.982 143.574 C 30.879 142.785,30.703 141.462,30.590 140.633 C 30.377 139.067,30.326 135.955,30.415 130.139 C 30.444 128.267,30.425 126.211,30.373 125.571 C 30.216 123.644,29.909 120.561,29.713 118.943 C 29.612 118.106,29.495 116.332,29.454 115.002 C 29.413 113.672,29.228 111.375,29.042 109.897 C 28.820 108.137,28.694 105.912,28.676 103.448 C 28.661 101.379,28.572 99.203,28.479 98.612 C 28.265 97.251,27.829 93.495,27.575 90.820 C 27.467 89.687,27.257 87.792,27.109 86.610 C 26.960 85.428,26.815 84.259,26.786 84.013 C 26.648 82.848,26.280 80.923,25.944 79.624 C 25.741 78.836,25.390 77.344,25.164 76.310 C 24.938 75.275,24.614 73.911,24.444 73.278 C 23.868 71.136,25.445 67.887,27.353 67.281 C 27.564 67.214,28.308 66.881,29.004 66.542 C 29.701 66.203,30.654 65.833,31.123 65.720 C 31.592 65.606,32.039 65.456,32.117 65.386 C 32.196 65.317,33.284 65.293,34.536 65.334 L 36.811 65.408 37.528 66.165 M216.570 76.214 C 214.598 76.471,212.808 76.854,212.808 77.019 C 212.808 77.082,212.546 77.230,212.226 77.348 C 210.989 77.803,208.795 80.218,208.288 81.684 C 207.694 83.399,207.588 83.982,207.556 85.714 C 207.466 90.662,210.695 96.193,213.673 96.193 C 213.875 96.193,214.090 96.274,214.151 96.373 C 214.402 96.778,217.408 96.399,219.180 95.739 C 221.434 94.900,224.101 92.221,224.564 90.332 C 224.631 90.058,224.738 89.794,224.801 89.745 C 225.556 89.158,225.562 84.335,224.808 83.581 C 224.711 83.483,224.631 83.270,224.631 83.106 C 224.631 82.724,223.543 80.609,223.347 80.609 C 223.265 80.609,223.197 80.498,223.197 80.362 C 223.197 80.227,222.880 79.778,222.491 79.366 C 222.103 78.953,221.700 78.358,221.596 78.044 C 221.217 76.896,219.894 75.926,218.770 75.972 C 218.496 75.984,217.506 76.093,216.570 76.214 M217.020 82.916 C 219.333 84.156,219.804 87.927,217.831 89.401 C 217.580 89.588,217.293 89.809,217.191 89.892 C 216.533 90.433,215.175 90.268,214.729 89.594 C 212.538 86.283,214.210 81.410,217.020 82.916 M269.234 100.644 C 275.155 101.873,276.920 102.390,277.887 103.180 C 278.005 103.276,278.461 103.619,278.902 103.943 C 279.405 104.314,279.779 104.764,279.909 105.155 C 280.958 108.303,281.613 112.158,281.181 112.635 C 281.016 112.817,280.550 113.626,280.145 114.432 C 279.741 115.238,279.345 115.898,279.266 115.898 C 279.088 115.898,276.036 114.724,275.059 114.279 C 274.074 113.831,272.697 113.390,272.284 113.390 C 272.096 113.390,271.899 113.320,271.846 113.235 C 271.793 113.149,271.043 112.943,270.179 112.777 C 269.314 112.611,268.360 112.398,268.057 112.305 C 264.970 111.356,258.606 113.178,257.610 115.297 C 257.478 115.578,257.285 115.970,257.182 116.167 C 256.122 118.187,258.016 124.496,259.682 124.496 C 259.813 124.496,259.919 124.575,259.919 124.672 C 259.919 124.769,260.141 124.901,260.412 124.965 C 260.683 125.030,260.985 125.141,261.084 125.211 C 261.420 125.453,262.516 125.782,263.502 125.938 C 265.353 126.232,265.741 126.312,266.099 126.476 C 266.426 126.625,266.848 126.739,268.697 127.176 C 273.366 128.280,273.801 128.479,275.796 130.424 C 277.317 131.907,277.934 133.227,278.083 135.319 C 278.146 136.198,278.297 137.038,278.418 137.185 C 278.682 137.505,278.661 143.024,278.392 144.021 C 278.299 144.366,278.124 145.092,278.003 145.634 C 277.789 146.594,277.162 147.992,276.892 148.112 C 276.818 148.144,276.758 148.274,276.758 148.399 C 276.758 148.524,276.576 148.828,276.355 149.073 C 276.133 149.319,275.786 149.717,275.583 149.957 C 273.746 152.133,267.622 155.959,265.301 156.380 C 264.678 156.493,263.998 156.695,263.790 156.829 C 263.280 157.158,261.440 157.761,260.498 157.908 C 260.077 157.973,259.623 158.136,259.489 158.271 C 259.354 158.406,258.852 158.611,258.373 158.728 C 257.893 158.845,257.405 159.016,257.287 159.108 C 256.905 159.407,254.690 159.352,254.008 159.028 C 253.663 158.863,252.907 158.566,252.327 158.366 C 251.305 158.015,249.992 157.216,248.920 156.292 C 248.633 156.046,248.328 155.844,248.242 155.844 C 247.971 155.844,247.354 154.181,247.463 153.746 C 247.544 153.426,247.693 153.336,248.145 153.333 C 248.718 153.330,250.724 152.879,254.008 152.015 C 256.585 151.337,258.208 150.779,259.848 150.005 C 260.350 149.768,260.824 149.575,260.900 149.575 C 261.028 149.575,263.301 148.019,263.502 147.794 C 263.693 147.580,265.406 146.235,265.831 145.967 C 267.704 144.780,268.870 142.531,268.874 140.095 C 268.875 139.463,268.967 138.424,269.078 137.786 C 269.281 136.619,268.876 133.632,268.514 133.632 C 268.439 133.632,268.331 133.446,268.274 133.219 C 267.931 131.855,264.893 129.831,262.560 129.413 C 262.189 129.346,261.842 129.221,261.788 129.133 C 261.734 129.046,261.573 128.974,261.431 128.974 C 261.288 128.974,260.754 128.773,260.243 128.527 C 259.733 128.280,259.229 128.076,259.125 128.073 C 259.020 128.069,258.612 127.911,258.218 127.721 C 257.824 127.530,257.395 127.372,257.264 127.368 C 257.134 127.365,256.922 127.262,256.794 127.138 C 256.665 127.015,256.379 126.794,256.158 126.646 C 255.936 126.498,255.663 126.296,255.551 126.198 C 255.438 126.099,255.025 125.859,254.632 125.664 C 253.238 124.972,251.036 123.235,248.949 121.182 C 247.676 119.930,247.586 119.564,247.897 116.883 C 248.335 113.104,248.893 111.990,251.928 108.833 C 253.028 107.689,253.687 106.941,254.374 106.054 C 255.119 105.093,255.842 104.442,256.588 104.060 C 258.122 103.276,258.847 102.978,259.830 102.727 C 260.421 102.576,261.159 102.334,261.469 102.189 C 261.780 102.044,262.160 101.926,262.314 101.926 C 262.469 101.926,263.244 101.608,264.038 101.221 C 265.962 100.280,266.951 100.171,269.234 100.644 M355.575 101.049 C 356.708 101.255,357.877 101.463,358.173 101.511 C 358.468 101.558,358.964 101.712,359.275 101.851 C 359.585 101.991,359.928 102.105,360.036 102.105 C 360.144 102.105,360.233 102.172,360.233 102.254 C 360.233 102.335,360.602 102.667,361.053 102.991 C 362.076 103.726,363.313 104.990,364.041 106.046 C 364.348 106.489,364.644 106.892,364.700 106.941 C 364.756 106.991,365.007 107.353,365.259 107.747 C 365.510 108.142,366.168 109.149,366.720 109.987 C 367.272 110.824,367.780 111.711,367.850 111.957 C 367.920 112.203,368.124 112.687,368.305 113.032 C 368.486 113.377,368.808 114.062,369.020 114.554 C 369.233 115.047,369.667 115.853,369.986 116.346 C 370.873 117.718,372.413 120.759,372.415 121.143 C 372.416 121.263,372.521 121.563,372.649 121.809 C 372.777 122.056,372.990 122.660,373.123 123.153 C 373.256 123.645,373.422 124.129,373.492 124.227 C 373.562 124.326,373.762 125.011,373.936 125.750 C 374.111 126.489,374.316 127.174,374.391 127.273 C 374.466 127.371,374.691 128.177,374.890 129.064 C 375.089 129.951,375.417 131.361,375.619 132.199 C 377.287 139.121,377.855 144.500,377.095 146.171 C 375.388 149.921,373.793 151.056,372.517 149.427 C 372.312 149.166,371.823 148.580,371.429 148.124 C 370.250 146.764,370.107 146.566,369.656 145.678 C 368.980 144.347,368.733 143.716,368.060 141.597 C 367.445 139.660,367.299 139.313,366.019 136.767 C 365.028 134.792,364.756 133.906,364.268 131.056 C 363.779 128.204,363.200 125.667,362.927 125.186 C 362.835 125.023,362.632 124.378,362.475 123.752 C 362.319 123.127,362.120 122.454,362.032 122.257 C 361.945 122.060,361.674 121.455,361.429 120.914 C 361.185 120.372,360.888 119.566,360.770 119.122 C 360.652 118.679,360.493 118.236,360.415 118.137 C 360.338 118.039,360.216 117.676,360.145 117.331 C 360.073 116.986,359.872 116.462,359.698 116.167 C 359.523 115.871,359.277 115.307,359.151 114.913 C 358.166 111.834,355.561 110.327,352.322 110.960 C 347.800 111.844,346.177 115.531,346.598 123.959 C 346.650 124.993,346.680 126.726,346.665 127.810 C 346.589 133.347,346.605 137.430,346.706 138.387 C 346.769 138.973,346.728 140.340,346.615 141.424 C 346.502 142.508,346.343 144.160,346.263 145.096 C 346.183 146.032,346.064 147.040,345.998 147.335 C 345.933 147.631,345.794 148.276,345.689 148.768 C 345.427 150.002,344.934 151.046,344.023 152.298 L 343.250 153.361 342.925 152.811 C 342.747 152.509,342.546 152.262,342.480 152.262 C 342.413 152.262,342.309 152.066,342.249 151.826 C 342.189 151.587,342.005 151.256,341.840 151.091 C 340.242 149.493,338.519 137.662,338.486 128.065 L 338.468 122.768 337.994 122.145 C 337.432 121.407,336.905 116.141,337.292 115.124 C 337.397 114.847,337.483 114.162,337.483 113.602 C 337.483 112.643,337.951 111.004,338.651 109.512 C 338.797 109.201,338.916 108.823,338.916 108.671 C 338.916 108.520,338.993 108.348,339.086 108.290 C 339.224 108.205,340.379 106.421,341.335 104.816 C 342.512 102.840,343.202 102.453,346.989 101.648 C 352.352 100.509,352.535 100.496,355.575 101.049 M310.202 103.921 C 310.478 104.034,310.957 104.235,311.268 104.369 C 311.578 104.503,311.911 104.613,312.008 104.613 C 312.105 104.613,312.416 104.733,312.698 104.880 C 312.980 105.027,313.336 105.148,313.489 105.149 C 313.641 105.150,313.843 105.217,313.936 105.299 C 314.030 105.380,314.832 105.712,315.719 106.035 C 316.605 106.358,317.492 106.692,317.689 106.777 C 317.886 106.861,318.671 107.173,319.433 107.470 C 320.195 107.767,320.966 108.152,321.148 108.327 C 321.330 108.501,321.864 108.998,322.335 109.433 C 324.142 111.097,327.766 117.363,329.211 121.319 C 329.418 121.887,329.749 122.774,329.947 123.290 C 330.144 123.806,330.436 124.872,330.596 125.661 C 330.756 126.449,330.950 127.174,331.026 127.273 C 331.101 127.371,331.298 128.201,331.462 129.118 C 331.627 130.034,331.882 131.139,332.030 131.574 C 332.177 132.009,332.290 132.670,332.281 133.043 C 332.271 133.416,332.314 134.810,332.376 136.140 C 332.463 138.000,332.421 138.930,332.195 140.170 C 331.902 141.782,331.859 141.928,331.321 143.153 C 331.164 143.513,331.034 143.843,331.034 143.888 C 331.034 143.932,330.672 144.521,330.228 145.196 C 329.785 145.871,329.422 146.528,329.422 146.655 C 329.422 146.783,329.360 146.888,329.284 146.888 C 329.208 146.888,328.946 147.265,328.702 147.727 C 328.056 148.948,326.071 150.768,324.586 151.501 C 324.339 151.622,324.017 151.798,323.869 151.891 C 323.375 152.203,321.625 152.950,321.087 153.079 C 320.795 153.149,320.475 153.269,320.376 153.345 C 319.419 154.087,310.009 154.443,307.120 153.847 C 304.860 153.380,302.527 152.765,302.023 152.501 C 301.772 152.371,301.482 152.263,301.377 152.263 C 301.272 152.262,300.769 152.060,300.258 151.814 C 299.748 151.567,299.252 151.366,299.156 151.366 C 298.788 151.366,295.208 149.701,295.208 149.530 C 295.208 149.456,295.107 149.395,294.984 149.394 C 294.780 149.392,294.305 149.015,291.749 146.821 C 289.181 144.617,287.442 142.646,286.751 141.155 C 285.742 138.981,285.356 138.092,285.356 137.941 C 285.356 137.853,285.273 137.754,285.170 137.720 C 285.068 137.686,284.906 136.897,284.810 135.968 C 284.714 135.038,284.520 133.548,284.379 132.656 C 283.979 130.131,283.644 123.808,283.896 123.556 C 284.009 123.443,284.103 123.144,284.104 122.893 C 284.108 122.004,284.639 120.701,285.589 119.249 C 286.118 118.440,286.702 117.335,286.887 116.794 C 287.223 115.807,288.030 114.433,288.798 113.541 C 289.023 113.279,289.328 112.889,289.476 112.674 C 289.801 112.201,290.182 111.763,291.906 109.877 C 293.193 108.469,295.158 106.968,296.214 106.584 C 296.498 106.481,296.892 106.323,297.089 106.234 C 297.286 106.144,297.870 105.938,298.386 105.776 C 298.902 105.614,299.363 105.418,299.411 105.340 C 299.459 105.263,299.843 105.112,300.264 105.006 C 300.685 104.900,301.697 104.642,302.513 104.434 C 304.826 103.843,309.281 103.546,310.202 103.921 M112.136 105.027 C 113.484 105.233,114.217 105.521,114.951 106.133 C 115.527 106.613,115.679 106.720,116.365 107.129 C 116.770 107.371,117.484 107.911,117.951 108.330 C 118.418 108.748,118.882 109.091,118.980 109.091 C 119.186 109.091,120.535 110.114,120.865 110.521 C 121.557 111.372,122.834 114.307,123.050 115.540 C 123.323 117.101,124.012 119.047,124.476 119.567 C 124.806 119.937,125.402 121.469,125.754 122.853 C 125.925 123.527,125.902 123.722,125.582 124.337 C 125.079 125.300,125.168 127.182,125.733 127.531 C 126.078 127.744,125.963 130.925,125.470 134.796 C 125.319 135.979,125.119 137.550,125.025 138.289 C 124.759 140.369,124.792 143.160,125.113 145.813 C 125.274 147.143,125.446 148.559,125.494 148.959 C 125.621 149.996,126.383 150.844,127.563 151.259 C 128.662 151.646,130.639 153.073,131.303 153.958 C 131.549 154.286,131.997 154.723,132.298 154.929 C 132.598 155.135,133.270 155.667,133.790 156.112 C 134.310 156.556,134.800 156.919,134.877 156.919 C 134.955 156.919,135.432 157.320,135.938 157.809 C 136.965 158.805,137.160 159.881,136.602 161.487 L 136.353 162.203 134.587 162.254 L 132.820 162.304 132.519 161.795 C 132.086 161.062,127.767 156.740,127.467 156.740 C 127.145 156.740,126.378 155.830,125.898 154.880 C 125.402 153.897,124.649 153.056,122.385 150.954 C 119.570 148.342,116.611 149.381,115.577 153.346 C 115.463 153.784,115.237 154.696,115.076 155.373 C 114.783 156.600,113.978 158.156,113.124 159.141 C 112.876 159.427,112.674 159.718,112.674 159.788 C 112.674 159.857,112.377 160.228,112.015 160.611 L 111.355 161.308 107.760 161.249 C 104.897 161.203,103.910 161.121,102.914 160.846 C 102.227 160.657,101.444 160.502,101.174 160.502 C 100.885 160.502,100.433 160.281,100.072 159.964 C 99.736 159.669,99.398 159.427,99.323 159.427 C 99.247 159.427,98.919 159.165,98.593 158.845 C 97.768 158.033,97.592 157.899,96.801 157.471 C 95.337 156.680,94.488 156.038,92.783 154.436 C 92.146 153.838,91.364 153.221,91.043 153.065 C 90.723 152.909,90.461 152.670,90.461 152.533 C 90.461 152.141,90.991 149.882,91.175 149.485 C 91.267 149.288,91.382 148.643,91.431 148.052 C 91.479 147.461,91.614 146.413,91.729 145.723 C 92.205 142.879,91.909 127.169,91.350 125.571 C 90.900 124.284,90.825 121.409,91.233 121.084 C 91.449 120.912,91.761 120.501,91.926 120.171 C 92.200 119.622,92.355 119.264,92.936 117.833 C 93.044 117.568,93.397 117.044,93.722 116.669 C 94.434 115.847,94.511 115.719,95.566 113.609 C 96.513 111.715,100.446 107.487,102.194 106.483 C 102.687 106.201,103.117 105.906,103.150 105.828 C 103.183 105.751,103.307 105.687,103.425 105.687 C 103.544 105.687,103.961 105.523,104.351 105.321 C 105.805 104.570,108.489 104.468,112.136 105.027 M215.739 105.253 C 217.591 105.718,218.996 107.186,219.583 109.270 C 219.708 109.713,219.881 110.237,219.967 110.434 C 220.539 111.750,220.739 115.210,220.953 127.541 C 221.175 140.390,221.488 142.378,223.680 144.875 C 225.981 147.495,228.101 148.239,230.273 147.187 C 234.028 145.369,236.189 145.460,237.939 147.511 C 238.501 148.169,238.961 148.773,238.961 148.854 C 238.961 149.275,236.062 152.443,234.859 153.336 C 234.527 153.583,234.045 153.971,233.787 154.199 C 232.452 155.382,231.100 156.245,228.723 157.432 L 226.098 158.742 224.155 158.767 C 223.087 158.780,221.930 158.705,221.585 158.599 C 220.488 158.261,217.872 155.737,217.288 154.453 C 217.076 153.986,216.833 153.475,216.749 153.315 C 216.445 152.739,216.199 151.526,215.943 149.341 C 215.800 148.116,215.595 146.884,215.489 146.603 C 215.382 146.323,215.309 145.567,215.326 144.923 C 215.434 140.912,214.213 127.185,213.691 126.545 C 213.606 126.440,213.482 125.110,213.416 123.589 C 213.351 122.068,213.238 120.743,213.166 120.645 C 213.094 120.546,212.986 119.861,212.927 119.122 C 212.867 118.383,212.740 117.068,212.644 116.199 C 212.545 115.302,212.535 114.449,212.622 114.228 C 212.707 114.013,212.877 113.252,213.000 112.537 C 213.233 111.185,213.225 111.129,212.533 109.270 C 212.019 107.888,212.266 106.324,213.173 105.231 C 213.453 104.894,214.337 104.901,215.739 105.253 M161.487 106.499 C 161.782 106.630,162.669 106.996,163.457 107.314 C 164.245 107.631,165.011 107.980,165.159 108.089 C 165.696 108.488,166.564 108.912,166.844 108.912 C 167.001 108.912,167.129 108.992,167.129 109.091 C 167.129 109.189,167.280 109.270,167.464 109.270 C 167.647 109.270,168.003 109.431,168.253 109.628 C 168.504 109.825,168.783 109.987,168.873 109.987 C 169.324 109.987,170.129 111.348,170.515 112.763 C 171.074 114.814,170.355 118.004,169.049 119.266 C 167.541 120.723,163.272 120.774,160.205 119.371 C 159.691 119.135,159.185 118.943,159.080 118.943 C 158.975 118.943,158.889 118.877,158.889 118.797 C 158.889 118.178,156.872 117.708,155.665 118.046 C 153.579 118.631,153.065 120.201,153.439 124.854 C 153.505 125.684,153.438 127.020,153.263 128.348 C 153.074 129.789,152.984 131.824,152.991 134.528 C 153.006 140.350,152.319 156.654,152.002 158.015 C 151.639 159.572,150.844 160.333,150.202 159.740 C 147.994 157.706,147.420 156.507,147.060 153.178 C 146.960 152.253,146.833 151.423,146.778 151.333 C 146.722 151.244,146.527 150.436,146.343 149.539 C 146.159 148.642,145.924 147.823,145.821 147.720 C 145.718 147.617,145.633 147.287,145.632 146.986 C 145.630 146.686,145.518 146.021,145.382 145.510 C 144.973 143.975,144.417 138.243,144.281 134.169 C 144.227 132.544,144.152 131.052,144.115 130.855 C 144.017 130.330,144.328 124.490,144.554 122.615 C 144.985 119.037,145.049 117.642,144.952 113.838 C 144.871 110.628,144.933 110.503,146.350 111.006 C 147.476 111.406,148.394 111.145,149.440 110.128 C 150.094 109.492,153.601 107.479,154.054 107.479 C 154.139 107.479,154.436 107.386,154.713 107.272 C 157.717 106.038,159.886 105.790,161.487 106.499 M192.200 107.955 C 193.741 108.632,195.396 109.546,196.662 110.419 C 197.414 110.938,198.432 111.637,198.924 111.973 C 199.415 112.309,199.899 112.671,199.998 112.777 C 200.098 112.883,200.540 113.246,200.981 113.583 C 201.422 113.920,202.034 114.438,202.341 114.734 C 202.647 115.029,203.241 115.579,203.659 115.957 C 204.551 116.760,204.506 117.104,203.347 118.350 C 202.984 118.740,202.443 119.335,202.145 119.673 C 201.479 120.427,198.732 122.510,198.119 122.726 C 197.873 122.813,197.534 122.963,197.367 123.059 C 195.172 124.320,190.870 124.166,187.461 122.705 C 187.264 122.620,186.659 122.412,186.117 122.242 C 185.575 122.072,184.890 121.750,184.595 121.527 C 182.979 120.305,180.682 121.028,179.825 123.027 C 179.233 124.407,179.363 126.374,180.306 130.318 C 180.754 132.190,181.272 134.407,181.458 135.244 C 181.644 136.082,181.910 137.089,182.050 137.483 C 182.189 137.877,182.398 139.006,182.515 139.991 C 182.631 140.976,182.761 142.056,182.803 142.389 C 182.844 142.723,182.807 143.368,182.720 143.822 C 182.633 144.277,182.427 145.374,182.262 146.261 C 182.097 147.147,181.899 148.034,181.822 148.231 C 181.745 148.428,181.540 148.952,181.367 149.395 C 181.195 149.839,180.943 150.456,180.809 150.766 C 180.674 151.076,180.564 151.459,180.564 151.617 C 180.564 151.774,180.484 151.903,180.385 151.903 C 180.287 151.903,180.206 152.032,180.206 152.190 C 180.206 152.347,180.093 152.730,179.954 153.041 C 179.816 153.351,179.473 154.188,179.193 154.902 C 178.605 156.397,178.505 156.437,177.624 155.531 C 176.890 154.776,176.539 153.761,175.902 150.560 C 175.687 149.476,175.441 148.428,175.357 148.231 C 174.915 147.205,174.613 142.614,174.562 136.140 C 174.514 130.117,174.469 129.237,174.130 127.635 C 173.456 124.446,173.455 123.622,174.127 122.884 C 175.482 121.395,176.271 119.438,176.726 116.435 C 177.078 114.112,177.085 114.098,178.172 113.658 C 179.236 113.228,184.454 109.784,184.864 109.242 C 184.945 109.135,187.412 107.875,188.088 107.595 C 188.553 107.402,191.537 107.664,192.200 107.955 M268.518 118.730 C 268.961 118.827,269.766 119.075,270.306 119.282 C 270.847 119.490,271.429 119.660,271.599 119.660 C 271.770 119.660,272.174 119.774,272.497 119.913 C 272.821 120.053,273.380 120.295,273.740 120.451 C 274.099 120.607,274.467 120.734,274.557 120.734 C 274.647 120.734,275.118 120.924,275.605 121.156 C 276.091 121.388,276.700 121.629,276.958 121.691 C 277.363 121.789,277.440 121.921,277.523 122.657 C 277.650 123.783,277.603 123.822,276.712 123.325 C 274.906 122.317,273.543 121.815,272.603 121.811 C 272.338 121.810,272.072 121.729,272.011 121.630 C 271.950 121.532,271.713 121.451,271.485 121.451 C 271.256 121.451,270.780 121.330,270.426 121.182 C 270.073 121.034,269.555 120.914,269.276 120.914 C 268.997 120.914,268.692 120.844,268.598 120.759 C 268.373 120.554,266.160 120.019,265.525 120.015 C 264.325 120.009,262.789 119.238,263.186 118.841 C 263.611 118.416,266.767 118.350,268.518 118.730 M304.613 119.406 C 303.824 119.643,303.018 119.913,302.821 120.005 C 302.624 120.097,302.154 120.267,301.776 120.383 C 299.864 120.969,297.434 124.595,296.259 128.616 C 295.498 131.220,295.750 133.715,297.019 136.133 C 298.101 138.194,301.819 140.980,303.482 140.977 C 303.748 140.977,304.008 141.046,304.060 141.131 C 304.153 141.282,304.620 141.382,306.673 141.692 C 310.702 142.300,318.087 139.845,320.804 136.993 C 321.440 136.325,321.673 135.957,322.256 134.707 C 323.316 132.428,322.406 128.894,320.128 126.447 C 319.969 126.276,319.395 125.620,318.854 124.988 C 317.737 123.686,316.318 122.576,315.002 121.975 C 314.510 121.750,313.542 121.299,312.853 120.974 C 312.163 120.648,310.914 120.250,310.076 120.088 C 309.239 119.927,308.223 119.645,307.819 119.460 C 306.695 118.946,306.167 118.937,304.613 119.406 M102.167 124.172 C 101.319 124.392,100.382 125.388,99.820 126.666 C 98.541 129.573,98.503 132.195,99.679 136.374 C 100.854 140.551,104.696 142.423,108.822 140.830 C 110.233 140.285,112.674 137.689,112.674 136.733 C 112.674 136.626,112.794 136.308,112.941 136.026 C 113.088 135.744,113.209 135.376,113.210 135.210 C 113.210 135.043,113.278 134.866,113.359 134.815 C 114.441 134.147,113.915 130.748,112.496 129.243 C 112.125 128.849,111.519 128.083,111.150 127.541 C 109.119 124.556,105.672 123.264,102.167 124.172 M310.935 126.909 C 311.694 127.280,312.484 127.661,312.689 127.756 C 314.106 128.412,316.642 131.685,316.344 132.474 C 316.128 133.048,313.687 134.526,312.951 134.529 C 312.798 134.529,312.432 134.656,312.136 134.811 C 311.129 135.338,308.018 135.627,306.582 135.327 C 305.893 135.183,305.162 135.065,304.958 135.065 C 304.754 135.065,304.311 134.815,303.973 134.509 C 303.635 134.203,303.190 133.839,302.983 133.700 C 302.199 133.173,301.904 131.493,302.350 130.099 C 303.066 127.863,303.212 127.631,304.044 127.408 C 304.457 127.298,305.091 127.007,305.452 126.762 C 306.787 125.856,308.894 125.912,310.935 126.909 M106.986 132.340 C 107.608 132.881,106.932 134.975,106.136 134.975 C 105.753 134.975,105.181 133.489,105.161 132.440 C 105.149 131.803,106.297 131.740,106.986 132.340 " stroke="none" fill="#3BB143" fill-rule="evenodd"></path></g></svg>