<svg id="svg" xmlns="http://www.w3.org/2000/svg" xmlns:xlink="http://www.w3.org/1999/xlink" width="400" height="224.27227944469325" viewBox="0, 0, 400,224.27227944469325"><g opacity="0.3" id="svgg"><path id="path0" d="M344.380 96.902 C 342.981 97.262,339.637 98.479,339.373 98.723 C 339.279 98.810,339.078 98.881,338.925 98.882 C 338.773 98.882,338.442 98.990,338.192 99.120 C 337.941 99.251,337.175 99.573,336.490 99.836 C 334.443 100.620,331.572 102.768,331.572 103.517 C 331.572 103.627,331.490 103.717,331.390 103.717 C 330.939 103.717,328.200 110.084,327.721 112.243 C 327.283 114.218,326.917 116.078,326.938 116.217 C 327.078 117.156,326.887 117.138,326.047 116.131 C 323.077 112.573,319.173 109.968,315.898 109.358 C 315.011 109.193,313.157 108.828,311.778 108.548 C 305.696 107.312,302.931 106.996,302.079 107.440 C 301.896 107.535,301.182 107.707,300.493 107.822 C 298.734 108.115,295.671 109.125,294.741 109.720 C 294.533 109.853,293.888 110.095,293.308 110.257 C 292.113 110.591,291.605 110.801,289.529 111.818 C 288.390 112.376,287.723 112.871,286.573 114.015 C 284.576 116.000,282.453 118.343,282.168 118.877 C 281.888 119.400,281.693 119.310,281.330 118.488 C 280.467 116.533,280.030 115.879,278.987 114.983 C 278.598 114.649,278.240 114.324,278.191 114.261 C 278.098 114.141,276.183 113.163,274.787 112.521 C 273.644 111.995,271.860 111.572,270.399 111.480 C 269.709 111.436,268.218 111.336,267.085 111.257 C 261.516 110.869,257.980 111.571,255.467 113.563 C 255.108 113.847,253.789 114.608,252.536 115.254 C 248.313 117.430,245.542 119.944,244.440 122.600 C 244.280 122.986,243.687 123.992,243.123 124.836 C 242.558 125.680,241.854 126.822,241.558 127.375 C 241.263 127.928,240.808 128.776,240.548 129.259 C 239.467 131.271,238.984 134.877,239.338 138.289 C 239.821 142.956,241.462 145.194,246.305 147.795 C 246.749 148.033,247.353 148.394,247.649 148.597 C 247.944 148.800,248.388 149.054,248.634 149.162 C 248.880 149.270,249.537 149.570,250.094 149.829 C 250.650 150.088,251.507 150.419,251.998 150.565 C 252.489 150.710,252.984 150.942,253.098 151.080 C 253.411 151.457,259.066 152.761,261.970 153.125 C 263.750 153.349,263.783 153.394,263.941 155.832 C 264.075 157.891,264.014 158.171,263.274 158.934 C 263.055 159.160,262.322 159.959,261.647 160.709 C 260.971 161.460,260.205 162.180,259.945 162.310 C 259.685 162.440,259.351 162.642,259.203 162.760 C 259.055 162.877,258.370 163.276,257.680 163.646 C 256.016 164.538,256.108 164.492,254.366 165.290 C 253.529 165.673,252.349 166.214,251.745 166.491 C 250.081 167.256,247.909 167.061,247.119 166.076 C 246.827 165.712,245.918 164.893,245.098 164.257 C 244.279 163.620,243.488 162.991,243.341 162.859 C 242.013 161.664,239.442 161.286,236.382 161.837 C 234.665 162.146,234.185 162.340,231.997 163.608 C 229.998 164.766,229.799 164.397,228.233 156.636 C 228.033 155.643,227.791 154.625,227.696 154.375 C 227.601 154.124,227.430 153.244,227.317 152.419 C 227.203 151.593,226.906 150.031,226.657 148.948 C 226.408 147.864,226.052 146.090,225.865 145.007 C 225.678 143.923,225.437 142.593,225.330 142.051 C 225.223 141.509,225.059 140.663,224.966 140.170 C 224.873 139.678,224.726 139.113,224.639 138.916 C 224.552 138.719,224.433 138.282,224.374 137.944 C 224.287 137.435,223.611 135.430,223.013 133.901 C 221.755 130.689,219.760 127.955,217.868 126.852 C 215.029 125.196,214.606 125.041,212.606 124.925 C 207.904 124.651,205.161 125.957,203.726 129.154 C 203.482 129.695,203.210 130.279,203.119 130.450 C 203.029 130.621,202.956 130.947,202.956 131.175 C 202.956 131.403,202.869 131.677,202.763 131.783 C 202.643 131.902,202.574 132.909,202.580 134.447 C 202.587 136.343,202.540 136.870,202.378 136.709 C 202.262 136.593,202.022 136.498,201.845 136.498 C 201.668 136.498,201.523 136.423,201.523 136.331 C 201.523 136.239,201.353 136.110,201.146 136.044 C 200.939 135.978,199.508 135.323,197.966 134.589 C 194.428 132.902,194.297 132.846,193.193 132.552 C 192.897 132.473,192.051 132.227,191.312 132.005 C 188.491 131.157,184.177 131.548,182.320 132.820 C 181.956 133.070,181.589 133.274,181.505 133.274 C 181.129 133.274,178.899 135.071,177.425 136.563 C 175.452 138.561,172.842 140.976,172.659 140.976 C 172.584 140.976,172.391 140.755,172.230 140.484 C 171.362 139.028,168.937 137.978,162.382 136.220 C 158.820 135.265,154.813 135.296,152.860 136.294 C 152.481 136.488,151.809 136.813,151.366 137.018 C 150.923 137.222,150.439 137.471,150.291 137.569 C 150.143 137.668,149.549 137.998,148.970 138.302 C 148.391 138.606,147.751 139.009,147.548 139.199 C 147.345 139.388,147.129 139.543,147.068 139.543 C 147.008 139.543,146.216 140.136,145.308 140.861 L 143.658 142.178 143.042 141.597 C 141.530 140.171,139.058 140.536,138.217 142.308 C 136.741 145.419,136.612 149.945,137.863 154.769 C 138.136 155.820,138.457 158.530,138.553 160.591 C 138.604 161.694,138.908 164.787,139.089 166.055 C 139.124 166.301,139.239 167.147,139.343 167.936 C 139.541 169.428,139.896 171.303,140.242 172.682 C 140.353 173.126,140.678 174.456,140.964 175.638 C 142.071 180.219,142.422 181.561,142.591 181.861 C 142.688 182.032,142.768 182.329,142.768 182.522 C 142.768 182.714,142.837 182.915,142.923 182.968 C 143.008 183.020,143.122 183.337,143.176 183.672 C 143.269 184.245,143.479 184.773,144.466 186.923 C 144.692 187.416,145.064 188.262,145.293 188.804 C 145.522 189.346,145.810 189.987,145.933 190.229 C 146.233 190.816,146.179 190.832,145.315 190.415 C 144.909 190.219,144.491 190.058,144.386 190.058 C 144.281 190.058,144.056 189.985,143.885 189.897 C 143.714 189.808,143.231 189.634,142.812 189.510 C 142.394 189.386,142.051 189.230,142.051 189.164 C 142.051 189.052,141.439 188.620,139.366 187.268 C 138.924 186.980,137.999 186.539,137.309 186.288 C 136.095 185.846,136.044 185.804,135.719 184.945 C 134.881 182.734,134.387 179.175,134.340 175.011 C 134.327 173.878,134.230 172.548,134.126 172.056 C 134.021 171.563,133.923 170.072,133.908 168.742 C 133.873 165.538,133.011 162.851,130.892 159.337 C 130.384 158.494,129.418 157.156,129.033 156.760 C 128.804 156.525,128.616 156.222,128.616 156.086 C 128.616 155.950,128.538 155.699,128.443 155.528 C 128.348 155.357,127.978 154.572,127.621 153.784 C 127.007 152.429,125.266 149.917,123.936 148.469 C 123.327 147.805,122.436 147.251,120.466 146.310 C 119.875 146.027,119.270 145.718,119.122 145.623 C 118.796 145.412,116.286 144.201,116.176 144.201 C 116.133 144.201,115.409 143.876,114.567 143.480 C 112.704 142.603,112.711 142.604,109.286 142.527 C 106.937 142.475,106.396 142.515,105.657 142.796 C 105.179 142.977,104.594 143.126,104.356 143.126 C 103.868 143.126,101.929 143.581,101.120 143.885 C 100.473 144.129,97.544 146.181,96.243 147.302 C 94.950 148.417,93.354 150.430,91.626 153.127 C 91.527 153.281,91.385 153.491,91.310 153.595 C 90.337 154.938,89.535 156.542,89.302 157.608 C 89.131 158.392,88.974 158.189,88.491 156.561 C 88.272 155.822,87.985 154.854,87.853 154.411 C 87.721 153.968,87.563 153.283,87.501 152.888 C 87.440 152.494,87.321 152.011,87.236 151.814 C 87.151 151.617,86.905 150.931,86.690 150.291 C 86.475 149.651,86.228 149.050,86.141 148.957 C 86.054 148.863,85.983 148.678,85.983 148.545 C 85.983 148.413,85.711 147.723,85.379 147.014 C 85.047 146.304,84.720 145.397,84.653 144.998 C 84.535 144.298,84.296 143.774,82.864 141.066 C 82.499 140.376,81.837 138.885,81.393 137.752 C 80.949 136.619,80.439 135.410,80.260 135.065 C 80.080 134.720,79.875 134.236,79.802 133.990 C 79.730 133.744,79.491 133.139,79.271 132.647 C 79.051 132.154,78.583 130.622,78.230 129.243 C 77.065 124.683,76.989 124.408,76.848 124.227 C 76.671 124.000,75.694 121.583,75.409 120.668 C 75.027 119.442,73.433 116.987,72.565 116.288 C 72.114 115.926,71.584 115.480,71.386 115.297 C 71.188 115.115,70.451 114.575,69.749 114.098 C 69.048 113.621,68.346 113.103,68.190 112.948 C 66.858 111.616,64.151 110.969,62.495 111.589 C 60.850 112.204,60.487 112.693,58.174 117.421 C 57.140 119.532,56.302 122.942,56.263 125.193 C 56.249 126.020,56.192 126.770,56.136 126.860 C 55.847 127.328,55.682 132.811,55.906 134.528 C 56.138 136.309,56.744 140.637,57.065 142.804 C 57.206 143.760,57.322 145.035,57.322 145.637 C 57.322 146.239,57.399 146.876,57.494 147.053 C 57.765 147.560,58.024 149.520,58.053 151.276 C 58.067 152.163,58.177 153.493,58.297 154.232 C 58.418 154.971,58.481 155.999,58.439 156.516 L 58.362 157.456 57.203 157.456 C 56.566 157.456,55.901 157.533,55.726 157.627 C 55.551 157.721,54.609 157.932,53.633 158.096 C 52.657 158.260,51.778 158.456,51.679 158.530 C 51.581 158.604,51.118 158.720,50.651 158.788 C 50.184 158.856,49.757 158.926,49.703 158.945 C 49.648 158.964,49.380 158.294,49.107 157.456 C 47.948 153.908,47.924 153.781,47.651 149.843 C 47.508 147.771,47.121 145.076,46.839 144.189 C 46.699 143.746,46.660 143.510,46.320 140.976 C 46.154 139.745,45.906 138.334,45.770 137.841 C 45.633 137.349,45.465 136.623,45.397 136.229 C 45.329 135.835,45.114 134.908,44.920 134.169 C 44.726 133.430,44.463 132.382,44.335 131.841 C 43.062 126.455,39.734 121.807,35.734 119.829 C 34.724 119.330,33.708 118.719,33.477 118.473 C 31.946 116.844,29.859 116.393,26.156 116.892 C 23.236 117.286,22.395 117.488,21.634 117.976 C 21.267 118.213,20.876 118.406,20.766 118.406 C 20.572 118.406,19.528 118.936,19.346 119.127 C 19.297 119.179,18.652 119.622,17.913 120.112 C 13.705 122.903,12.794 124.022,12.008 127.363 C 11.788 128.298,11.523 129.346,11.419 129.690 C 11.316 130.034,11.175 131.444,11.107 132.824 C 10.964 135.739,11.045 136.053,12.270 137.313 C 12.713 137.769,13.077 138.280,13.077 138.448 C 13.077 138.869,14.612 141.969,15.209 142.753 C 15.477 143.106,15.919 144.120,16.191 145.007 C 16.463 145.893,16.800 146.883,16.940 147.205 C 17.080 147.527,17.285 148.374,17.395 149.086 C 17.505 149.798,17.791 150.905,18.030 151.545 C 18.511 152.835,18.958 154.262,19.431 156.023 C 19.603 156.664,19.810 157.349,19.891 157.546 C 20.428 158.859,20.807 160.260,20.979 161.576 C 21.089 162.414,21.289 163.502,21.424 163.995 C 21.558 164.487,21.755 165.414,21.861 166.055 C 21.967 166.695,22.240 167.783,22.467 168.473 C 22.695 169.163,23.066 170.291,23.292 170.981 C 23.518 171.670,23.845 173.000,24.017 173.936 C 24.370 175.850,24.670 177.130,25.256 179.221 C 25.477 180.009,25.721 180.896,25.799 181.191 C 25.877 181.487,26.104 182.293,26.304 182.983 C 27.037 185.511,27.519 187.745,27.656 189.252 C 27.950 192.471,28.987 198.025,29.563 199.463 C 29.681 199.758,29.840 200.242,29.915 200.537 C 30.382 202.370,30.854 203.958,30.978 204.116 C 31.058 204.217,31.386 205.065,31.707 206.001 C 32.267 207.630,32.811 208.870,33.153 209.295 C 33.858 210.171,34.206 210.713,34.664 211.644 C 36.404 215.184,38.614 217.599,41.247 218.841 C 41.763 219.084,42.325 219.357,42.496 219.449 C 42.668 219.540,42.893 219.615,42.998 219.615 C 43.102 219.615,43.607 219.881,44.120 220.205 C 47.405 222.286,51.369 222.139,53.844 219.844 C 54.452 219.279,55.889 216.565,55.889 215.979 C 55.889 215.776,55.967 215.362,56.062 215.060 C 57.503 210.471,57.635 208.252,56.983 199.642 C 56.878 198.262,56.744 196.408,56.684 195.522 C 56.586 194.064,56.209 192.419,55.861 191.931 C 55.787 191.829,55.670 191.186,55.600 190.504 C 55.530 189.821,55.285 188.782,55.054 188.193 C 54.824 187.605,54.635 186.986,54.635 186.816 C 54.635 186.647,54.393 185.768,54.098 184.863 C 53.262 182.308,52.963 182.595,57.630 181.466 C 58.889 181.161,60.322 180.796,60.815 180.656 C 62.063 180.299,62.721 180.208,64.594 180.134 C 65.491 180.098,66.399 179.975,66.613 179.860 C 67.114 179.592,67.296 179.716,67.453 180.432 C 67.522 180.751,67.800 181.617,68.070 182.356 C 68.869 184.544,69.466 186.499,69.656 187.550 C 69.754 188.092,69.922 188.767,70.030 189.049 C 70.138 189.331,70.304 190.311,70.399 191.226 C 70.494 192.141,70.781 193.683,71.037 194.654 C 71.293 195.624,71.608 196.861,71.737 197.403 C 71.866 197.944,72.142 198.902,72.349 199.531 C 72.557 200.159,72.727 200.751,72.727 200.847 C 72.727 200.942,73.010 201.615,73.356 202.344 C 73.701 203.072,74.114 204.052,74.274 204.521 C 74.433 204.990,74.801 205.719,75.091 206.141 C 75.381 206.563,75.783 207.281,75.985 207.736 C 76.942 209.899,79.999 212.418,83.298 213.762 C 83.740 213.942,84.296 214.184,84.532 214.300 C 85.250 214.650,88.452 214.569,89.297 214.179 C 91.510 213.158,92.250 212.745,93.059 212.077 C 94.125 211.196,95.749 209.096,96.230 207.975 C 96.419 207.534,96.602 207.145,96.635 207.112 C 96.722 207.025,98.017 207.703,99.151 208.428 C 99.683 208.768,100.237 209.046,100.384 209.046 C 100.531 209.046,100.696 209.120,100.753 209.211 C 100.809 209.302,101.237 209.514,101.704 209.682 C 102.171 209.850,103.204 210.297,104.000 210.675 C 106.087 211.666,111.052 212.071,114.196 211.508 C 114.393 211.472,115.038 211.382,115.629 211.307 C 120.197 210.725,123.959 209.166,123.959 207.853 C 123.959 207.731,124.073 207.566,124.213 207.488 C 124.495 207.328,126.290 203.809,126.661 202.687 C 126.791 202.293,126.962 201.894,127.041 201.800 C 127.119 201.707,127.183 201.480,127.183 201.296 C 127.183 200.497,127.531 200.207,127.911 200.690 C 128.102 200.933,128.258 201.213,128.258 201.313 C 128.258 201.619,129.627 202.687,130.683 203.204 C 132.241 203.967,133.124 204.585,133.966 205.503 C 135.596 207.278,138.588 208.209,141.318 207.790 C 141.869 207.705,142.889 207.552,143.585 207.449 C 148.006 206.797,149.746 204.706,149.978 199.766 L 150.022 198.816 151.008 199.730 C 153.659 202.189,157.431 203.272,159.606 202.199 C 163.481 200.285,165.150 196.613,164.353 191.750 C 164.209 190.869,164.084 189.664,164.077 189.073 C 164.069 188.482,163.997 187.635,163.917 187.192 C 163.628 185.598,162.833 180.432,162.552 178.325 C 162.040 174.480,161.577 171.181,161.407 170.175 C 160.943 167.413,160.322 162.623,160.322 161.797 C 160.322 161.250,160.346 161.233,160.994 161.295 C 162.180 161.409,166.524 161.047,167.315 160.768 C 167.736 160.619,168.100 160.519,168.122 160.544 C 168.199 160.631,169.079 162.914,169.349 163.726 C 169.496 164.169,169.788 165.540,169.996 166.771 C 170.204 168.003,170.446 169.333,170.534 169.727 C 170.621 170.121,170.782 171.166,170.891 172.048 C 171.079 173.568,171.283 174.520,171.910 176.803 C 172.628 179.416,173.508 182.207,173.887 183.072 C 174.082 183.515,174.503 184.523,174.824 185.311 C 177.478 191.827,180.045 194.050,184.953 194.079 C 188.440 194.100,190.124 192.351,190.509 188.311 C 190.577 187.596,190.697 186.972,190.775 186.923 C 190.854 186.874,190.976 186.337,191.047 185.730 C 191.117 185.122,191.248 184.376,191.337 184.072 C 193.036 178.275,192.524 171.509,189.980 166.144 C 188.720 163.487,188.444 162.870,187.822 161.328 C 187.068 159.456,187.017 159.599,188.356 159.821 C 194.578 160.852,201.992 157.416,205.777 151.749 L 206.519 150.637 206.894 151.942 C 207.101 152.660,207.499 153.892,207.780 154.680 C 209.200 158.664,210.096 161.744,210.830 165.159 C 211.010 165.996,211.331 167.447,211.544 168.383 C 211.757 169.319,212.005 170.513,212.094 171.037 C 212.263 172.033,212.379 172.442,212.994 174.205 C 213.200 174.796,213.525 175.764,213.715 176.355 C 213.906 176.946,214.153 177.712,214.265 178.056 C 214.666 179.294,215.442 180.786,216.733 182.803 C 217.663 184.257,220.042 186.213,222.703 187.712 C 225.397 189.229,229.196 189.452,232.064 188.261 C 232.262 188.180,232.745 188.016,233.139 187.897 C 234.554 187.471,236.235 186.352,239.711 183.521 C 239.876 183.386,240.220 183.139,240.475 182.972 C 240.729 182.805,242.078 181.310,243.471 179.649 L 246.005 176.630 246.464 177.567 C 247.514 179.709,252.378 182.789,255.352 183.194 C 255.682 183.239,256.030 183.307,258.307 183.772 C 259.834 184.083,264.750 183.175,265.666 182.412 C 265.821 182.282,266.049 182.176,266.173 182.176 C 266.296 182.176,266.814 181.903,267.323 181.568 C 268.468 180.816,270.760 179.672,272.190 179.140 C 274.990 178.097,278.074 176.017,279.901 173.936 C 280.290 173.493,280.698 173.050,280.806 172.951 C 280.914 172.853,281.243 172.409,281.537 171.966 C 282.993 169.771,283.646 168.823,283.758 168.742 C 284.351 168.310,286.295 163.811,286.522 162.344 L 286.639 161.590 287.296 162.023 C 288.568 162.862,292.001 164.980,292.089 164.980 C 292.138 164.980,292.334 165.125,292.525 165.303 C 293.057 165.798,294.940 166.692,296.731 167.299 C 298.394 167.863,300.044 168.202,304.971 168.993 C 305.168 169.024,305.950 169.152,306.709 169.277 C 308.016 169.493,312.026 169.448,313.659 169.200 C 314.004 169.147,315.213 168.978,316.346 168.824 C 325.671 167.552,333.538 162.501,336.141 156.113 C 336.840 154.398,336.872 154.384,337.418 155.589 C 338.764 158.561,342.142 161.982,344.469 162.730 C 347.838 163.812,349.710 162.785,351.627 158.800 C 353.448 155.015,353.497 154.818,353.693 150.491 C 353.753 149.172,353.722 147.520,353.623 146.819 C 353.524 146.118,353.355 144.698,353.247 143.663 C 353.068 141.952,352.847 140.618,352.089 136.677 C 351.947 135.938,351.577 133.681,351.266 131.661 C 350.956 129.642,350.586 127.646,350.444 127.226 C 350.130 126.297,349.561 122.803,349.390 120.757 C 349.227 118.812,349.391 118.870,350.847 121.280 C 351.470 122.310,352.043 123.236,352.120 123.337 C 352.198 123.438,352.423 123.841,352.620 124.232 C 352.817 124.624,353.119 125.100,353.292 125.291 C 353.464 125.482,353.605 125.716,353.605 125.811 C 353.605 125.907,353.905 126.516,354.272 127.166 C 355.082 128.601,355.469 129.505,356.813 133.094 C 357.913 136.033,359.053 138.468,359.327 138.468 C 359.418 138.468,359.539 138.615,359.596 138.795 C 359.653 138.975,359.840 139.277,360.011 139.467 C 360.920 140.475,363.445 144.483,364.162 146.055 C 364.356 146.481,364.639 146.933,364.792 147.059 C 364.945 147.186,365.069 147.404,365.069 147.543 C 365.069 148.034,369.278 151.987,370.879 152.999 C 373.159 154.442,376.435 154.673,378.664 153.549 C 380.590 152.577,381.679 151.220,382.821 148.365 C 382.910 148.144,383.057 147.781,383.149 147.559 C 384.106 145.242,384.139 145.071,384.132 142.499 C 384.125 139.750,383.581 137.157,382.433 134.393 C 382.341 134.172,382.191 133.809,382.100 133.587 C 382.008 133.365,381.760 132.700,381.549 132.109 C 381.337 131.518,381.059 130.793,380.930 130.497 C 380.802 130.202,380.514 129.436,380.291 128.795 C 380.069 128.155,379.585 127.026,379.216 126.288 C 378.847 125.549,378.490 124.760,378.422 124.536 C 378.099 123.473,374.372 116.368,373.841 115.802 C 373.647 115.596,373.489 115.351,373.489 115.258 C 373.489 115.164,373.287 114.871,373.041 114.605 C 372.794 114.340,372.593 114.070,372.593 114.005 C 372.593 113.839,370.918 111.757,370.440 111.330 C 370.058 110.989,369.474 110.185,368.784 109.051 C 367.170 106.398,361.108 100.172,359.166 99.173 C 358.915 99.044,358.186 98.653,357.546 98.304 C 354.632 96.715,347.888 95.996,344.380 96.902 M209.315 101.921 C 209.118 102.004,208.473 102.208,207.882 102.374 C 204.263 103.392,202.620 104.595,201.192 107.275 C 200.243 109.056,199.958 113.221,200.675 114.842 C 200.823 115.176,201.131 115.934,201.358 116.525 C 203.811 122.891,210.351 124.604,215.110 120.125 C 216.521 118.797,218.365 115.418,218.161 114.533 C 218.141 114.446,218.173 114.254,218.232 114.107 C 219.202 111.673,217.101 107.050,213.704 104.138 C 213.457 103.927,212.981 103.414,212.646 102.998 C 211.759 101.898,210.409 101.462,209.315 101.921 M354.215 103.621 C 356.817 104.914,361.076 108.798,362.964 111.599 C 364.670 114.129,365.282 114.976,365.624 115.280 C 366.293 115.877,368.631 119.090,369.375 120.436 C 370.116 121.777,372.538 126.637,373.006 127.721 C 373.155 128.065,373.566 128.978,373.920 129.749 C 374.274 130.520,374.563 131.223,374.563 131.313 C 374.563 131.402,374.879 132.263,375.265 133.225 C 377.189 138.028,377.317 138.422,377.699 140.708 C 377.913 141.988,378.030 143.197,377.959 143.395 C 377.888 143.592,377.647 144.317,377.423 145.007 C 376.345 148.323,375.503 148.739,373.340 147.022 C 372.030 145.982,370.085 144.083,370.085 143.844 C 370.085 143.760,369.900 143.463,369.674 143.184 C 369.448 142.906,369.109 142.315,368.921 141.872 C 368.734 141.429,368.354 140.729,368.079 140.317 C 367.803 139.905,367.577 139.475,367.577 139.362 C 367.577 139.249,367.295 138.811,366.950 138.391 C 366.605 137.970,366.323 137.569,366.323 137.499 C 366.323 137.429,365.854 136.753,365.280 135.995 C 363.795 134.033,363.872 134.195,361.921 128.885 C 361.043 126.494,358.586 121.652,358.057 121.269 C 357.987 121.218,357.671 120.694,357.355 120.105 C 355.163 116.010,353.755 114.048,352.612 113.495 C 352.222 113.307,351.749 113.076,351.561 112.983 C 349.735 112.079,345.833 113.247,344.430 115.118 C 343.431 116.451,342.880 119.478,343.214 121.803 C 343.306 122.447,343.509 123.875,343.664 124.978 C 343.819 126.080,344.065 127.410,344.210 127.933 C 344.471 128.875,345.233 132.973,345.436 134.528 C 345.494 134.971,345.588 135.696,345.646 136.140 C 345.837 137.592,346.454 140.812,346.632 141.280 C 346.973 142.176,347.421 147.567,347.403 150.560 C 347.390 152.825,347.241 153.497,346.317 155.449 L 345.848 156.441 344.835 155.359 C 343.943 154.407,342.499 152.285,342.499 151.927 C 342.499 151.855,342.188 151.155,341.807 150.372 C 340.849 148.399,339.597 144.556,338.369 139.812 C 338.063 138.630,337.703 137.300,337.569 136.856 C 337.313 136.006,336.941 133.777,336.582 130.948 C 336.243 128.268,335.956 127.357,335.241 126.688 C 334.898 126.367,334.618 125.964,334.619 125.792 C 334.620 125.621,334.464 124.998,334.272 124.407 C 332.848 120.024,332.950 115.332,334.557 111.420 C 336.297 107.180,336.761 106.511,338.468 105.786 C 338.863 105.619,339.427 105.373,339.722 105.240 C 340.018 105.107,340.582 104.899,340.976 104.779 C 341.370 104.659,342.326 104.283,343.099 103.944 C 345.272 102.994,346.296 102.829,349.754 102.875 L 352.799 102.916 354.215 103.621 M209.225 108.959 C 210.095 109.266,210.573 109.635,211.158 110.450 C 211.921 111.515,212.437 113.087,212.092 113.300 C 211.993 113.361,211.912 113.570,211.912 113.765 C 211.912 114.659,210.843 115.806,209.666 116.177 L 208.718 116.475 208.170 115.873 C 206.149 113.652,206.056 109.239,208.023 108.858 C 208.241 108.816,208.459 108.772,208.509 108.760 C 208.558 108.748,208.880 108.838,209.225 108.959 M305.302 113.672 C 305.514 113.710,306.050 113.812,306.494 113.901 C 306.937 113.989,308.227 114.237,309.360 114.451 C 310.493 114.666,312.064 114.965,312.853 115.115 C 313.641 115.266,314.524 115.423,314.814 115.465 C 316.481 115.705,320.538 118.852,321.953 121.003 C 322.213 121.397,322.873 122.324,323.421 123.063 C 323.969 123.802,324.613 124.701,324.851 125.060 C 325.089 125.420,325.353 125.742,325.437 125.777 C 325.577 125.835,325.783 126.174,327.048 128.437 C 327.296 128.880,327.600 129.364,327.725 129.512 C 327.850 129.660,328.078 130.158,328.233 130.618 C 328.387 131.079,328.787 132.006,329.121 132.678 C 329.455 133.351,329.830 134.183,329.953 134.528 C 330.077 134.872,330.412 135.650,330.698 136.255 C 330.983 136.860,331.293 137.707,331.385 138.136 C 331.588 139.079,331.878 140.193,332.267 141.514 C 333.024 144.085,332.421 149.945,331.226 151.635 C 331.156 151.733,330.990 152.176,330.856 152.620 C 330.723 153.063,330.547 153.502,330.466 153.596 C 330.385 153.690,330.318 153.872,330.318 154.002 C 330.318 154.131,329.922 154.780,329.438 155.444 C 326.574 159.368,321.032 162.082,314.554 162.733 C 313.914 162.797,312.906 162.934,312.315 163.038 C 310.715 163.317,306.294 163.154,305.240 162.777 C 305.092 162.724,304.648 162.639,304.254 162.588 C 303.860 162.537,302.974 162.373,302.284 162.224 C 301.594 162.075,300.828 161.911,300.582 161.860 C 300.336 161.809,299.812 161.678,299.418 161.570 C 299.024 161.461,298.519 161.328,298.296 161.274 C 298.072 161.220,297.846 161.104,297.792 161.018 C 297.739 160.931,297.586 160.860,297.452 160.860 C 297.318 160.860,296.618 160.499,295.895 160.059 C 295.173 159.618,294.339 159.123,294.044 158.958 C 293.142 158.456,290.480 156.697,290.165 156.396 C 290.003 156.240,289.622 155.924,289.319 155.693 C 289.016 155.462,288.429 154.777,288.015 154.170 C 287.601 153.564,286.903 152.544,286.463 151.903 C 285.687 150.773,285.541 150.387,283.953 145.275 C 282.395 140.257,281.790 134.977,282.672 134.094 C 282.769 133.998,282.848 133.813,282.848 133.684 C 282.848 133.472,283.363 132.196,283.742 131.466 C 283.823 131.310,283.946 130.705,284.015 130.123 C 284.087 129.510,284.382 128.574,284.714 127.900 C 285.595 126.115,286.810 123.901,287.082 123.586 C 287.217 123.431,287.326 123.245,287.326 123.174 C 287.326 122.314,290.745 118.881,292.633 117.844 C 293.359 117.446,293.998 117.046,294.055 116.955 C 294.147 116.806,296.707 115.540,296.916 115.540 C 296.964 115.540,297.385 115.370,297.852 115.164 C 299.166 114.582,299.338 114.521,300.582 114.209 C 302.548 113.716,304.238 113.423,304.586 113.516 C 304.768 113.565,305.090 113.635,305.302 113.672 M268.697 117.605 C 271.315 117.773,271.376 117.788,273.540 118.824 L 274.890 119.471 275.547 120.864 C 277.045 124.039,277.884 126.480,277.651 126.984 C 277.362 127.610,276.579 130.077,276.579 130.361 C 276.579 130.717,275.621 130.630,273.086 130.044 C 262.634 127.626,254.646 130.073,254.647 135.692 C 254.647 140.451,257.692 143.394,262.507 143.289 C 264.115 143.254,270.981 143.801,272.279 144.067 C 275.132 144.653,278.043 147.376,278.536 149.921 C 278.659 150.555,278.949 151.467,279.180 151.947 C 281.111 155.950,280.381 163.194,277.774 165.901 C 277.456 166.232,276.736 167.073,276.175 167.771 C 275.613 168.469,274.700 169.396,274.144 169.831 C 273.046 170.693,271.859 171.639,271.294 172.104 C 271.097 172.266,270.375 172.628,269.688 172.907 C 269.002 173.187,268.196 173.599,267.897 173.824 C 267.244 174.314,266.150 174.893,265.293 175.202 C 264.948 175.326,264.505 175.567,264.308 175.736 C 264.111 175.906,263.587 176.227,263.144 176.448 C 262.700 176.669,262.297 176.901,262.248 176.962 C 261.201 178.262,253.719 176.800,252.267 175.011 C 251.405 173.948,251.397 173.142,252.248 172.972 C 252.547 172.912,253.396 172.580,254.133 172.235 C 254.870 171.890,255.505 171.608,255.543 171.608 C 255.650 171.608,258.669 170.208,259.382 169.828 C 259.727 169.644,260.331 169.313,260.725 169.092 C 261.120 168.872,261.805 168.489,262.248 168.242 C 262.691 167.995,263.119 167.684,263.197 167.551 C 263.276 167.418,263.450 167.309,263.584 167.309 C 263.919 167.309,265.424 165.834,267.689 163.288 C 270.335 160.315,270.593 159.471,270.235 154.948 C 269.819 149.694,267.718 147.487,262.559 146.886 C 261.846 146.803,260.296 146.525,259.113 146.268 C 257.931 146.011,256.840 145.781,256.688 145.757 C 256.537 145.733,255.972 145.502,255.434 145.245 C 254.896 144.987,254.134 144.674,253.740 144.550 C 252.167 144.051,249.344 142.498,247.182 140.941 L 245.998 140.089 245.778 138.726 C 245.142 134.787,245.966 131.028,247.924 128.927 C 248.089 128.749,248.377 128.285,248.563 127.896 C 248.750 127.506,248.951 127.186,249.010 127.185 C 249.069 127.184,249.263 126.861,249.440 126.467 C 249.618 126.073,249.825 125.750,249.901 125.750 C 249.977 125.750,250.126 125.487,250.233 125.165 C 250.470 124.446,251.893 122.789,252.576 122.436 C 252.852 122.293,253.187 122.070,253.319 121.940 C 253.452 121.810,254.145 121.431,254.859 121.098 C 255.573 120.765,256.158 120.442,256.158 120.380 C 256.158 120.319,256.460 120.163,256.829 120.032 C 257.199 119.902,257.662 119.662,257.859 119.499 C 259.140 118.436,260.329 117.818,261.800 117.451 C 262.168 117.359,266.302 117.452,268.697 117.605 M67.570 120.154 C 68.596 120.917,69.353 121.974,69.585 122.971 C 69.654 123.265,69.905 123.932,70.144 124.454 C 70.382 124.976,70.578 125.474,70.578 125.562 C 70.578 125.649,70.695 125.949,70.837 126.228 C 71.176 126.890,71.606 128.343,71.759 129.343 C 71.826 129.781,71.940 130.219,72.012 130.318 C 72.084 130.416,72.201 130.820,72.272 131.214 C 72.343 131.608,72.463 132.011,72.539 132.109 C 72.615 132.208,72.727 132.607,72.786 132.995 C 72.923 133.879,74.322 137.394,74.538 137.394 C 74.626 137.394,74.698 137.527,74.698 137.690 C 74.698 138.177,76.288 142.009,77.299 143.959 C 77.818 144.960,78.458 146.451,78.722 147.273 C 78.986 148.096,79.388 149.172,79.616 149.664 C 80.810 152.254,80.629 151.702,82.288 157.774 C 82.538 158.687,82.784 159.502,82.835 159.584 C 82.886 159.667,83.125 160.491,83.367 161.416 C 83.608 162.342,83.933 163.542,84.088 164.084 C 84.244 164.626,84.459 165.513,84.567 166.055 C 84.674 166.597,84.826 167.120,84.905 167.219 C 84.983 167.318,85.186 168.003,85.355 168.742 C 85.888 171.068,86.349 172.692,87.233 175.369 C 87.717 176.835,88.142 178.499,88.207 179.188 C 88.272 179.860,88.437 180.746,88.576 181.159 C 88.714 181.571,88.958 182.668,89.118 183.597 C 89.278 184.527,89.480 185.421,89.568 185.584 C 89.656 185.748,89.775 186.358,89.833 186.940 C 89.891 187.522,90.012 188.200,90.102 188.446 C 90.763 190.246,90.765 205.019,90.105 206.087 C 89.095 207.722,87.334 208.575,85.971 208.091 C 83.890 207.352,82.091 205.926,81.247 204.346 C 79.219 200.547,78.564 198.847,77.743 195.253 C 77.530 194.317,77.243 193.189,77.106 192.745 C 76.969 192.302,76.736 191.052,76.590 189.969 C 76.334 188.078,76.017 186.596,75.501 184.863 C 75.133 183.628,74.005 180.340,73.811 179.937 C 73.717 179.740,73.518 178.909,73.370 178.090 C 72.667 174.201,69.473 172.166,65.963 173.372 C 65.398 173.566,64.210 173.778,63.323 173.842 C 61.662 173.963,60.178 174.231,58.307 174.746 C 57.716 174.909,56.749 175.151,56.158 175.283 C 55.567 175.415,54.438 175.698,53.650 175.911 C 52.862 176.124,51.590 176.440,50.824 176.612 C 47.142 177.441,46.125 180.833,47.931 186.255 C 48.170 186.972,48.365 187.679,48.365 187.826 C 48.365 187.974,48.573 188.677,48.826 189.390 C 49.079 190.102,49.358 191.169,49.446 191.760 C 49.534 192.351,49.760 193.318,49.949 193.910 C 50.321 195.074,50.481 196.321,50.618 199.104 C 50.666 200.090,50.743 201.001,50.788 201.131 C 50.833 201.260,50.914 202.832,50.966 204.624 C 51.019 206.416,51.100 208.124,51.146 208.419 C 51.247 209.062,49.711 214.967,49.390 215.171 C 48.888 215.490,47.993 215.284,46.641 214.537 C 45.865 214.109,44.927 213.659,44.556 213.537 C 42.986 213.022,41.743 211.636,40.125 208.598 C 39.705 207.810,39.224 207.004,39.056 206.807 C 38.502 206.158,37.981 205.169,37.630 204.099 C 37.439 203.520,37.109 202.562,36.895 201.970 C 36.681 201.379,36.354 200.291,36.167 199.552 C 35.980 198.813,35.754 198.047,35.665 197.850 C 35.453 197.386,34.545 193.891,34.454 193.193 C 33.558 186.311,33.061 183.582,32.156 180.564 C 31.993 180.022,31.789 179.337,31.702 179.042 C 31.432 178.129,30.975 176.402,30.730 175.369 C 30.601 174.828,30.402 174.021,30.288 173.578 C 30.173 173.135,29.972 172.248,29.841 171.608 C 29.610 170.482,28.950 168.133,28.659 167.398 C 28.393 166.724,27.966 165.070,27.851 164.263 C 27.788 163.820,27.628 163.054,27.495 162.562 C 27.363 162.069,27.163 160.944,27.051 160.062 C 26.867 158.605,26.607 157.621,25.899 155.703 C 25.764 155.337,25.520 154.554,25.357 153.963 C 24.799 151.947,23.944 149.306,23.795 149.136 C 23.713 149.042,23.645 148.692,23.645 148.358 C 23.645 147.470,21.620 141.049,20.865 139.543 C 20.642 139.100,20.176 138.000,19.828 137.100 C 19.137 135.310,18.485 133.806,17.858 132.557 C 17.480 131.806,17.467 131.671,17.665 130.587 C 18.214 127.587,18.400 127.274,20.406 125.983 C 20.939 125.640,21.476 125.258,21.600 125.134 C 22.276 124.458,24.677 123.450,25.884 123.335 C 26.574 123.269,27.533 123.141,28.015 123.050 C 28.858 122.890,28.922 122.908,29.647 123.502 C 30.062 123.842,31.280 124.569,32.353 125.117 C 34.096 126.008,35.468 127.094,35.468 127.584 C 35.468 127.659,35.609 127.863,35.781 128.037 C 36.212 128.471,36.722 129.277,36.722 129.523 C 36.722 129.634,36.874 129.940,37.061 130.201 C 37.247 130.463,37.608 131.362,37.862 132.200 C 38.286 133.593,38.485 134.388,39.054 136.946 C 39.163 137.438,39.363 138.245,39.498 138.737 C 39.634 139.230,39.795 140.036,39.857 140.528 C 40.173 143.044,40.524 145.243,40.687 145.723 C 40.962 146.539,41.367 149.517,41.379 150.828 C 41.394 152.310,41.804 155.156,42.153 156.202 C 42.688 157.802,43.530 161.207,43.816 162.920 C 44.302 165.836,46.368 166.628,50.341 165.419 C 52.613 164.727,54.227 164.323,56.067 163.985 C 57.680 163.689,58.155 163.692,61.108 164.015 C 63.994 164.330,65.996 161.764,65.120 158.875 C 64.959 158.341,64.751 156.897,64.660 155.665 C 64.198 149.442,64.074 148.314,63.136 141.782 C 62.995 140.797,62.834 139.548,62.780 139.006 C 62.725 138.464,62.550 137.295,62.389 136.408 C 61.567 131.856,62.337 123.277,63.853 120.107 C 64.183 119.418,64.497 118.716,64.551 118.548 C 64.663 118.200,65.642 118.720,67.570 120.154 M302.463 129.507 C 301.773 129.799,301.054 130.130,300.865 130.243 C 300.676 130.356,300.152 130.651,299.701 130.898 C 296.433 132.688,294.109 140.560,295.679 144.521 C 296.849 147.473,298.039 148.699,301.555 150.575 C 303.135 151.418,308.013 151.607,310.255 150.913 C 312.615 150.181,313.425 149.896,313.954 149.610 C 314.265 149.443,314.829 149.149,315.208 148.958 C 317.129 147.990,319.678 145.953,320.792 144.498 C 321.815 143.160,322.383 140.204,321.898 138.734 C 320.852 135.567,315.861 131.192,312.405 130.414 C 311.863 130.292,310.907 130.040,310.281 129.852 C 309.486 129.615,308.592 129.512,307.317 129.512 C 306.312 129.512,305.414 129.440,305.320 129.351 C 304.857 128.914,303.715 128.976,302.463 129.507 M214.045 131.861 C 215.871 132.864,217.844 136.750,218.639 140.907 C 218.782 141.654,218.937 142.327,218.984 142.402 C 219.030 142.477,219.191 143.255,219.342 144.131 C 219.493 145.007,219.812 146.731,220.052 147.962 C 220.292 149.194,220.612 150.846,220.764 151.635 C 220.915 152.423,221.117 153.471,221.212 153.963 C 221.307 154.456,221.555 155.625,221.764 156.561 C 221.972 157.497,222.294 158.988,222.479 159.875 C 223.644 165.457,224.010 166.380,225.719 168.039 C 228.794 171.025,231.022 171.534,233.624 169.844 C 235.386 168.699,236.323 168.289,237.722 168.048 C 239.472 167.748,239.535 167.763,240.913 168.841 C 242.323 169.945,242.408 170.177,241.776 171.208 C 241.551 171.576,241.264 172.113,241.138 172.402 C 240.944 172.847,240.006 174.178,239.677 174.474 C 239.622 174.523,238.958 175.299,238.201 176.198 C 233.776 181.454,228.695 183.830,225.526 182.124 C 223.044 180.788,221.755 179.494,220.737 177.316 C 220.151 176.063,218.361 170.564,218.361 170.019 C 218.361 169.756,218.192 168.938,217.985 168.201 C 217.270 165.647,217.107 164.960,217.104 164.478 C 217.102 164.212,216.936 163.390,216.735 162.651 C 216.535 161.912,216.250 160.864,216.104 160.322 C 215.675 158.736,215.571 158.387,214.773 155.844 C 214.356 154.514,213.898 153.195,213.755 152.913 C 213.488 152.388,213.224 151.474,212.609 148.948 C 212.256 147.499,211.958 146.439,211.461 144.855 C 210.571 142.022,210.425 141.232,210.454 139.405 C 210.479 137.799,210.432 137.472,210.078 136.829 C 209.004 134.873,208.888 134.578,208.878 133.781 C 208.863 132.667,209.428 131.360,209.974 131.241 C 211.072 131.002,213.024 131.299,214.045 131.861 M267.389 135.475 C 267.468 135.521,268.137 135.613,268.876 135.680 C 269.615 135.746,270.985 135.963,271.921 136.163 C 272.857 136.363,274.086 136.619,274.653 136.732 C 275.429 136.887,275.683 137.014,275.683 137.247 C 275.683 137.417,275.777 137.762,275.891 138.013 C 276.203 138.697,276.008 138.731,274.573 138.241 C 273.203 137.774,272.456 137.659,269.503 137.463 C 268.518 137.397,267.429 137.321,267.085 137.294 C 266.740 137.266,265.333 137.194,263.959 137.132 C 260.148 136.961,259.933 136.213,263.495 135.516 C 264.574 135.305,267.054 135.279,267.389 135.475 M309.897 136.185 C 313.867 137.287,316.698 140.150,315.130 141.477 C 314.863 141.703,314.464 142.039,314.244 142.222 C 308.917 146.668,300.795 145.728,301.479 140.745 C 301.761 138.693,302.023 137.963,302.546 137.781 C 302.796 137.693,303.363 137.345,303.807 137.007 C 304.976 136.115,305.046 136.082,306.225 135.860 C 307.475 135.623,308.062 135.675,309.897 136.185 M189.879 138.115 C 194.248 139.150,202.696 143.657,202.525 144.862 C 202.384 145.856,200.628 148.438,198.836 150.285 C 197.563 151.596,196.860 152.038,194.235 153.175 C 192.489 153.932,186.368 153.591,184.231 152.618 C 180.323 150.837,178.260 155.130,180.573 160.233 C 180.752 160.627,181.193 161.675,181.553 162.562 C 181.913 163.448,182.355 164.456,182.534 164.801 C 182.713 165.146,183.041 165.911,183.264 166.502 C 183.486 167.094,183.851 167.900,184.073 168.294 C 185.380 170.607,186.157 173.998,186.039 176.865 C 185.941 179.236,185.821 180.042,184.953 184.147 C 184.693 185.378,184.442 186.667,184.396 187.011 C 184.350 187.355,184.250 187.698,184.174 187.774 C 183.922 188.026,182.371 186.831,182.057 186.146 C 181.893 185.785,181.667 185.369,181.557 185.222 C 181.446 185.074,181.251 184.631,181.124 184.236 C 180.997 183.842,180.787 183.278,180.659 182.983 C 179.348 179.976,179.274 179.776,178.477 177.071 C 177.788 174.733,177.319 172.625,177.146 171.095 C 177.043 170.173,176.887 169.233,176.801 169.007 C 176.715 168.781,176.398 167.198,176.097 165.489 C 175.604 162.698,175.214 161.145,174.869 160.600 C 174.556 160.107,173.471 156.537,173.609 156.452 C 174.557 155.866,175.506 151.845,175.430 148.730 C 175.377 146.521,175.377 146.520,176.574 145.798 C 177.309 145.354,178.998 143.794,181.540 141.208 C 183.560 139.155,185.012 138.189,186.422 137.962 C 187.976 137.712,188.225 137.723,189.879 138.115 M158.979 141.873 C 159.077 141.945,159.589 142.058,160.115 142.125 C 160.642 142.192,161.810 142.479,162.713 142.762 C 163.615 143.046,164.957 143.461,165.696 143.684 C 168.279 144.464,169.558 147.076,169.110 150.654 C 168.847 152.749,168.421 153.397,166.716 154.297 C 165.308 155.041,160.613 155.302,159.626 154.692 C 159.552 154.646,159.287 154.572,159.037 154.526 C 158.787 154.481,158.233 154.275,157.806 154.069 C 156.228 153.307,154.870 153.736,153.668 155.378 C 152.928 156.390,152.959 157.237,153.878 161.129 C 154.064 161.917,154.260 163.206,154.313 163.995 C 154.569 167.770,154.971 170.799,155.299 171.416 C 155.381 171.571,155.499 172.221,155.561 172.862 C 155.623 173.502,155.788 174.792,155.927 175.728 C 156.067 176.664,156.312 178.437,156.473 179.669 C 156.634 180.900,156.970 183.238,157.220 184.863 C 157.470 186.489,157.713 188.222,157.760 188.715 C 157.806 189.207,157.952 190.497,158.084 191.581 C 158.424 194.391,158.100 196.328,157.288 196.328 C 155.853 196.328,153.214 193.120,152.711 190.767 C 152.528 189.909,151.479 187.176,150.754 185.670 C 149.026 182.077,147.882 178.305,146.245 170.802 C 145.413 166.987,144.651 160.757,144.471 156.292 C 144.451 155.799,144.207 154.389,143.928 153.157 C 143.316 150.455,143.163 148.867,143.513 148.839 C 143.645 148.829,144.283 148.809,144.931 148.795 C 146.274 148.765,147.089 148.298,147.674 147.222 C 147.855 146.890,148.443 146.296,148.981 145.902 C 149.519 145.508,150.174 145.017,150.438 144.811 C 151.094 144.300,153.675 142.794,154.769 142.285 C 155.895 141.762,158.478 141.509,158.979 141.873 M112.700 149.470 C 113.424 149.807,114.380 150.245,114.823 150.444 C 115.266 150.643,115.911 150.968,116.256 151.165 C 116.601 151.362,117.206 151.665,117.600 151.837 C 118.929 152.420,119.641 152.969,120.412 154.006 C 121.696 155.734,121.960 156.162,122.235 156.959 C 122.878 158.826,123.588 160.092,124.605 161.182 C 124.908 161.507,125.495 162.451,125.910 163.280 L 126.664 164.788 126.405 165.659 C 126.088 166.724,126.188 167.355,126.825 168.311 C 127.366 169.124,127.757 170.508,127.833 171.876 C 127.861 172.369,127.960 174.227,128.053 176.005 C 128.368 181.989,128.629 183.810,129.514 186.207 C 129.795 186.968,130.228 188.581,130.228 188.867 C 130.228 190.351,131.964 191.800,133.901 191.934 C 134.252 191.958,136.420 193.165,137.125 193.729 C 137.844 194.303,138.822 194.868,141.347 196.165 C 143.099 197.066,143.427 197.431,143.626 198.700 C 143.978 200.941,143.799 201.156,141.335 201.474 L 140.170 201.624 139.353 200.902 C 138.094 199.787,135.647 198.072,134.259 197.329 C 133.382 196.860,132.547 196.187,131.482 195.091 C 130.645 194.228,129.669 193.390,129.313 193.227 C 128.958 193.065,128.273 192.661,127.791 192.329 C 124.280 189.917,121.888 191.767,121.459 197.228 C 121.253 199.854,120.121 202.893,118.880 204.151 C 118.361 204.677,112.696 205.574,110.524 205.474 C 109.884 205.445,109.037 205.406,108.643 205.388 C 108.231 205.369,107.508 205.123,106.941 204.808 C 106.399 204.508,105.593 204.062,105.150 203.817 C 104.707 203.573,103.674 203.106,102.855 202.781 C 102.035 202.456,101.085 201.999,100.742 201.767 C 100.399 201.534,100.076 201.343,100.025 201.343 C 99.973 201.343,99.667 201.142,99.344 200.896 C 99.021 200.649,98.664 200.448,98.550 200.448 C 98.436 200.448,98.343 200.367,98.343 200.268 C 98.343 200.169,97.991 199.994,97.560 199.879 L 96.777 199.669 96.809 195.177 C 96.841 190.686,96.602 188.036,96.034 186.598 C 95.925 186.321,95.835 185.829,95.835 185.505 C 95.835 185.182,95.750 184.673,95.646 184.374 C 95.542 184.076,95.306 183.036,95.122 182.064 C 94.938 181.091,94.667 179.772,94.520 179.131 C 94.373 178.491,94.208 177.564,94.153 177.071 C 94.054 176.200,93.671 174.751,93.347 174.026 C 93.204 173.706,92.964 172.938,91.992 169.691 C 91.719 168.776,91.722 168.748,92.158 168.106 C 92.552 167.524,92.704 167.069,92.855 166.015 C 92.879 165.845,92.955 165.651,93.024 165.582 C 93.092 165.514,93.148 165.259,93.148 165.017 C 93.148 164.774,93.381 164.163,93.665 163.658 C 94.147 162.802,94.553 161.730,95.131 159.785 C 95.698 157.877,98.970 153.138,100.732 151.673 C 102.818 149.938,103.687 149.525,105.867 149.235 C 110.035 148.679,111.073 148.714,112.700 149.470 M106.225 168.831 C 105.880 168.964,105.275 169.081,104.881 169.090 C 103.307 169.129,101.734 170.473,101.507 171.974 C 101.485 172.117,101.398 172.346,101.314 172.482 C 100.874 173.186,101.129 177.116,101.732 178.947 C 103.393 183.986,105.146 185.670,108.733 185.670 C 113.518 185.670,115.745 183.091,116.362 176.835 C 116.503 175.410,116.050 174.239,114.968 173.232 C 114.485 172.782,113.483 171.828,112.743 171.112 C 111.182 169.604,110.121 169.008,108.529 168.750 C 107.135 168.524,107.011 168.528,106.225 168.831 M109.740 176.892 C 110.202 177.524,109.657 179.489,109.019 179.489 C 108.723 179.489,107.914 177.976,107.767 177.150 L 107.654 176.513 108.574 176.534 C 109.251 176.549,109.558 176.643,109.740 176.892 " stroke="none" fill="#3BB143" fill-rule="evenodd"></path></g></svg>