<?xml version="1.0" standalone="no"?>
<!DOCTYPE svg PUBLIC "-//W3C//DTD SVG 20010904//EN"
 "http://www.w3.org/TR/2001/REC-SVG-20010904/DTD/svg10.dtd">
<svg version="1.0" xmlns="http://www.w3.org/2000/svg"
 width="700.000000pt" height="700.000000pt" viewBox="0 0 700.000000 700.000000"
 preserveAspectRatio="xMidYMid meet">
<metadata>
Created by potrace 1.14, written by Peter Selinger 2001-2017
</metadata>
<g transform="translate(0.000000,700.000000) scale(0.100000,-0.100000)"
fill="#000000" stroke="none">
<path d="M4132 5429 c-50 -9 -97 -40 -121 -80 -10 -16 -33 -39 -52 -52 -48
-32 -89 -98 -239 -382 -29 -55 -65 -122 -80 -150 -101 -185 -126 -232 -137
-250 -7 -11 -16 -29 -22 -41 -5 -12 -32 -61 -59 -110 -27 -49 -102 -192 -167
-319 -114 -223 -146 -283 -215 -410 -70 -129 -330 -656 -330 -669 0 -2 -15
-37 -34 -78 -19 -40 -73 -163 -120 -273 -48 -110 -91 -209 -96 -220 -32 -68
-80 -197 -80 -213 0 -11 -7 -22 -14 -25 -22 -9 -47 -64 -51 -113 -7 -82 32
-153 106 -193 156 -84 503 -251 551 -265 64 -18 125 -21 163 -6 53 20 72 51
173 275 19 44 124 256 233 470 249 492 409 813 409 820 0 7 152 312 185 370
80 143 299 531 344 609 28 49 51 90 51 92 0 2 13 25 29 52 45 76 76 133 148
270 37 70 74 140 83 157 10 19 28 32 50 38 110 28 164 161 107 262 -28 51
-104 101 -367 246 -363 198 -370 201 -448 188z m206 -495 l142 -75 -84 -167
c-90 -177 -116 -224 -328 -592 -239 -413 -324 -574 -473 -895 -38 -84 -203
-412 -277 -553 -34 -64 -121 -235 -193 -380 -73 -144 -134 -265 -137 -268 -3
-3 -50 19 -104 49 -55 29 -107 56 -118 60 -14 5 -17 13 -12 32 8 30 158 381
281 655 135 304 536 1097 790 1565 83 154 173 321 200 370 67 127 156 275 164
275 4 0 71 -34 149 -76z"/>
<path d="M1920 4946 c-45 -9 -73 -25 -145 -81 -50 -38 -95 -74 -101 -80 -7 -5
-53 -41 -104 -80 -129 -98 -623 -494 -808 -649 -191 -159 -479 -456 -524 -539
-32 -59 -15 -152 40 -222 10 -13 90 -81 178 -151 132 -105 345 -283 364 -304
3 -3 39 -34 80 -69 41 -36 80 -70 85 -76 37 -40 710 -550 796 -603 67 -41 169
-30 219 24 13 13 29 24 36 24 43 0 118 117 171 265 12 35 71 180 94 230 14 32
17 78 6 105 -5 14 -9 51 -8 83 2 79 -16 111 -105 182 -42 33 -83 67 -93 75
-75 67 -123 110 -166 149 -27 26 -98 89 -157 140 -60 52 -108 97 -108 100 0 3
31 35 69 71 38 36 109 103 158 150 129 124 219 201 293 251 115 77 288 208
309 235 41 52 48 133 17 193 -16 31 -65 76 -93 86 -10 3 -84 107 -165 230
-122 186 -154 228 -185 244 -52 26 -88 30 -153 17z m47 -488 c28 -40 65 -91
82 -114 l31 -41 -78 -56 c-84 -61 -209 -163 -287 -235 -27 -25 -77 -71 -110
-101 -72 -67 -296 -275 -334 -312 -47 -44 -66 -114 -49 -176 12 -47 52 -101
82 -113 13 -4 29 -14 37 -22 8 -7 41 -35 74 -63 33 -27 145 -124 250 -215 105
-91 211 -181 235 -202 l43 -36 -15 -34 c-8 -18 -35 -81 -58 -140 l-44 -107
-30 22 c-353 249 -585 424 -681 514 -11 10 -83 72 -160 138 -77 66 -145 124
-151 130 -6 5 -27 24 -48 40 -89 70 -109 92 -100 108 30 53 263 291 393 401
46 39 118 100 160 135 42 35 107 91 146 124 181 154 536 427 555 427 3 0 29
-33 57 -72z"/>
<path d="M5355 4722 c-22 -10 -56 -19 -75 -20 -68 -5 -119 -48 -202 -172 -69
-102 -123 -186 -153 -240 -6 -10 -25 -30 -42 -44 -46 -39 -69 -119 -52 -181
18 -64 251 -319 484 -530 61 -55 111 -103 113 -106 4 -10 -109 -140 -213 -244
-115 -114 -174 -168 -305 -280 -58 -50 -122 -105 -142 -124 -39 -35 -62 -85
-56 -123 1 -13 -8 -44 -20 -70 -25 -54 -28 -104 -9 -151 14 -31 33 -51 152
-152 76 -64 133 -114 165 -143 14 -13 53 -44 88 -69 34 -25 67 -54 73 -64 15
-28 82 -59 129 -59 67 0 104 23 232 149 218 212 331 318 474 446 139 124 218
199 460 440 297 293 323 327 324 408 0 44 -19 94 -46 120 -11 9 -67 63 -125
120 -58 56 -170 163 -249 237 -189 178 -447 435 -645 645 -88 92 -167 175
-175 183 -41 42 -121 52 -185 24z m813 -1132 c90 -84 170 -159 179 -165 14
-11 5 -24 -67 -101 -134 -142 -554 -558 -689 -684 -68 -63 -161 -150 -205
-192 -45 -43 -85 -77 -91 -78 -5 0 -23 12 -40 28 -32 28 -186 164 -195 170 -3
2 11 17 30 34 96 85 303 274 365 334 136 134 356 389 392 457 45 81 9 193 -74
232 -21 9 -47 27 -58 40 -11 12 -54 51 -95 86 -88 75 -224 210 -297 295 l-52
61 75 110 75 110 292 -291 c161 -161 365 -361 455 -446z"/>
</g>
</svg>
